<?xml version="1.0" encoding="utf-8"?>
<!-- Generator: Adobe Illustrator 17.1.0, SVG Export Plug-In . SVG Version: 6.00 Build 0)  -->
<!DOCTYPE svg PUBLIC "-//W3C//DTD SVG 1.1//EN" "http://www.w3.org/Graphics/SVG/1.1/DTD/svg11.dtd">
<svg version="1.1" id="Layer_1" xmlns="http://www.w3.org/2000/svg" xmlns:xlink="http://www.w3.org/1999/xlink" x="0px" y="0px"
	 viewBox="32 0 480 320" enable-background="new 32 0 480 320" xml:space="preserve">
<g>
	<path fill="#303030" d="M184,127.5h-12.9c-0.7,0-0.7,1.9,0,1.9c3.1,0,4.5,1.4,4.5,5.3v18.7c0,5.5-3.3,11-10.1,11
		c-6.9,0-10.1-5.5-10.1-11v-18.7c0-4,1.4-5.3,4.5-5.3c0.7,0,0.7-1.9,0-1.9H143c-0.7,0-0.7,1.9,0,1.9c3.1,0,4.5,1.4,4.5,5.3v18.7
		c0,7.7,4.5,14.9,16.1,14.9c11.2,0,15.9-7.2,15.9-14.9v-18.7c0-4,1.4-5.3,4.5-5.3C184.7,129.5,184.7,127.5,184,127.5z M221.4,158.4
		c-1.4,1.9-4.5,6.8-12.5,6.8c-7.5,0-13.6-6.2-13.6-17.8c0-12.1,6-18,13.5-18c8.8,0,10.8,7.8,11.1,9.6c0.1,0.7,2.1,0.6,2.1-0.1
		l-0.9-9.4c0,0-4.4-3-13.4-3c-9.8,0-20.9,5.7-20.9,21.1c0,15.7,11.7,21,20.9,21c8.1,0,13.3-4.1,14.1-4.8
		C222.2,162.3,222.1,157.4,221.4,158.4z M244.7,165.5c-3.1,0-4.5-1.4-4.5-5.3v-11.6c0-0.4,0.2-0.6,0.6-0.6l16.1,0
		c0.4,0,0.6,0.2,0.6,0.5v11.7c0,4-1.4,5.3-4.5,5.3c-0.7,0-0.7,1.9,0,1.9h16.8c0.7,0,0.7-1.9,0-1.9c-3.1,0-4.5-1.4-4.5-5.3v-25.3
		c0-4,1.4-5.3,4.5-5.3c0.7,0,0.7-1.9,0-1.9H253c-0.7,0-0.7,1.9,0,1.9c3.1,0,4.5,1.3,4.5,5.3v9.6c0,0.3-0.2,0.5-0.6,0.5l-16.1,0
		c-0.4,0-0.6-0.2-0.6-0.6v-9.5c0-4,1.4-5.3,4.5-5.3c0.7,0,0.7-1.9,0-1.9h-16.8c-0.7,0-0.7,1.9,0,1.9c3.1,0,4.5,1.4,4.5,5.3v25.3
		c0,4-1.4,5.3-4.5,5.3c-0.7,0-0.7,1.9,0,1.9h16.8C245.4,167.4,245.4,165.5,244.7,165.5z M309.7,157.5c-0.9,4.5-3.6,7-10.2,7
		c-5.2,0-8.1-0.5-8.1-4.2v-11.2c0-0.4,0.2-0.7,0.7-0.7h4.3c4.4,0,6.1,1.7,6.1,4.8c0,0.7,2.1,0.7,2.1,0v-12.4c0-0.7-2.1-0.7-2.1,0
		c0,3.1-1.7,4.8-6.1,4.8h-4.3c-0.5,0-0.7-0.2-0.7-0.7v-13.6c0-0.5,0.3-0.8,0.8-0.8c0.9-0.1,2.3-0.1,4.7-0.1c8.4,0,10,1.9,11.2,7
		c0.2,0.7,2.1,0.6,2.1-0.1l-0.9-9.8h-30.1c-0.7,0-0.7,1.9,0,1.9c3.1,0,4.5,1.4,4.5,5.3v25.4c0,4-1.4,5.3-4.5,5.3
		c-0.7,0-0.7,1.9,0,1.9h31.7l1-9.8C311.9,156.9,309.9,156.8,309.7,157.5z M128.7,146.2c4.1-1.2,7.9-4.1,7.9-9c0-7-5.5-9.7-12.5-9.7
		l-20.5,0c-0.7,0-0.7,1.9,0,1.9c3.1,0,4.5,1.4,4.5,5.3v25.3c0,4-1.4,5.3-4.5,5.3c-0.7,0-0.7,1.9,0,1.9l21.3,0
		c7.4,0,13.6-3.8,13.6-10.8C138.5,150.2,133.7,147.1,128.7,146.2z M115.8,131.2c0-0.9,1.5-1.1,3.2-1.1c5.2,0,9.7,1.9,9.7,7.5
		c0,5.9-4.2,7.9-9.5,7.9c-2.5,0-3.4-0.3-3.4-1.4C115.8,144.1,115.8,131.2,115.8,131.2z M120.7,164.9c-3.6,0-5-0.7-5-3.8v-11.7
		c0-1,0.6-1.4,3.9-1.4c5.3,0,10.7,2.6,10.7,8.5C130.3,162.5,126,164.9,120.7,164.9z M357.7,165.5c-3.3-0.2-5.7-2.6-7.5-5.9
		l-6.3-11.3c4.3-1.4,8.4-4.6,8.4-9.9c0-7.1-5.8-10.8-13.1-10.8l-19.6,0c-0.7,0-0.7,1.9,0,1.9c3.1,0,4.5,1.4,4.5,5.3v25.3
		c0,4-1.4,5.3-4.5,5.3c-0.7,0-0.7,1.9,0,1.9h16.8c0.7,0,0.7-1.9,0-1.9c-3.1,0-4.5-1.4-4.5-5.3v-10.3c0-0.4,0.2-0.6,0.6-0.6h1.2
		c1.9,0,2.6,0.7,3.4,2.2c1.9,3.8,2.9,5.7,5.1,9.3c2.6,4.5,5.6,6.9,12.2,6.9c1.5,0,3-0.1,3.6-0.3
		C358.5,167.2,358.4,165.5,357.7,165.5z M334.9,146.5c-2.5,0-3.2-0.3-3.2-1.4v-13.8c0-0.9,1.1-1.1,2.7-1.1c5.2,0,9.8,2.5,9.8,8.1
		C344.2,144.2,340.2,146.5,334.9,146.5z M392.5,157.5c-0.9,4.5-3.6,7-10.2,7c-5.2,0-8.1-0.5-8.1-4.2v-11.2c0-0.4,0.2-0.7,0.7-0.7
		h4.3c4.4,0,6.1,1.7,6.1,4.8c0,0.7,2.1,0.7,2.1,0v-12.4c0-0.7-2.1-0.7-2.1,0c0,3.1-1.7,4.8-6.1,4.8h-4.3c-0.5,0-0.7-0.2-0.7-0.7
		v-13.6c0-0.5,0.3-0.8,0.8-0.8c0.9-0.1,2.3-0.1,4.7-0.1c8.4,0,10,1.9,11.2,7c0.2,0.7,2.1,0.6,2.1-0.1l-0.9-9.8h-30.1
		c-0.7,0-0.7,1.9,0,1.9c3.1,0,4.5,1.4,4.5,5.3v25.4c0,4-1.4,5.3-4.5,5.3c-0.7,0-0.7,1.9,0,1.9h31.7l1-9.8
		C394.6,156.9,392.6,156.8,392.5,157.5z M440.4,165.5c-3.3-0.2-5.7-2.6-7.5-5.9l-6.3-11.3c4.3-1.4,8.4-4.6,8.4-9.9
		c0-7.1-5.8-10.8-13.1-10.8l-19.6,0c-0.7,0-0.7,1.9,0,1.9c3.1,0,4.5,1.4,4.5,5.3v25.3c0,4-1.4,5.3-4.5,5.3c-0.7,0-0.7,1.9,0,1.9H419
		c0.7,0,0.7-1.9,0-1.9c-3.1,0-4.5-1.4-4.5-5.3v-10.3c0-0.4,0.2-0.6,0.6-0.6h1.2c1.9,0,2.6,0.7,3.4,2.2c1.9,3.8,2.9,5.7,5.1,9.3
		c2.6,4.5,5.6,6.9,12.2,6.9c1.5,0,3-0.1,3.6-0.3C441.2,167.2,441.1,165.5,440.4,165.5z M417.7,146.5c-2.5,0-3.2-0.3-3.2-1.4v-13.8
		c0-0.9,1.1-1.1,2.7-1.1c5.2,0,9.8,2.5,9.8,8.1C427,144.2,423,146.5,417.7,146.5z M248.7,206.3c-1.9,0-2.5-0.6-2.5-2.5v-17.3
		c0-0.5-0.3-0.5-0.6-0.3c-1.6,0.9-3.7,1.8-5.4,2.4c-0.3,0.1-0.2,1,0.1,0.9l1.7-0.6c0.9-0.3,1.2,0.1,1.2,1.4v13.5
		c0,1.8-0.6,2.5-2.5,2.5c-0.3,0-0.3,0.9,0,0.9h8C249,207.2,249,206.3,248.7,206.3z M260.6,195.3c2-0.6,3.9-2.1,3.9-4.5
		c0-3.6-3.4-4.8-5.8-4.8c-2.8,0-6.1,1.7-6.1,5.7c0,2.9,1.8,4.2,4.1,5.2c-2.3,0.5-4.7,2.3-4.7,5.2c0,3.9,3.4,5.4,6.2,5.4
		c3.2,0,6.9-1.9,6.9-6.3C265.2,197.8,262.9,196.3,260.6,195.3z M255.3,190.5c0-2.2,1.4-3.7,3.2-3.7c2,0,3.6,1.6,3.6,4.1
		c0,1.5-0.5,2.9-1.6,3.7c-0.1,0.1-0.4,0.3-0.6,0.3c-0.4,0-1.5-0.5-1.9-0.7C256.6,193.5,255.3,192.6,255.3,190.5z M258.5,206.8
		c-2.4,0-3.7-2-3.7-4.8c0-1.7,0.6-3.2,1.8-4.1c0.3-0.2,0.7-0.4,0.9-0.4c0.3,0,1.3,0.5,1.7,0.6c1.6,0.8,3,1.9,3,4.3
		C262.3,205,260.7,206.8,258.5,206.8z M277.2,195.3c2-0.6,3.9-2.1,3.9-4.5c0-3.6-3.4-4.8-5.8-4.8c-2.8,0-6.1,1.7-6.1,5.7
		c0,2.9,1.8,4.2,4.1,5.2c-2.3,0.5-4.7,2.3-4.7,5.2c0,3.9,3.4,5.4,6.2,5.4c3.2,0,6.9-1.9,6.9-6.3
		C281.8,197.8,279.4,196.3,277.2,195.3z M271.8,190.5c0-2.2,1.4-3.7,3.2-3.7c2,0,3.6,1.6,3.6,4.1c0,1.5-0.5,2.9-1.6,3.7
		c-0.1,0.1-0.4,0.3-0.6,0.3c-0.4,0-1.5-0.5-1.9-0.7C273.1,193.5,271.8,192.6,271.8,190.5z M275.1,206.8c-2.4,0-3.7-2-3.7-4.8
		c0-1.7,0.6-3.2,1.8-4.1c0.3-0.2,0.7-0.4,0.9-0.4c0.3,0,1.3,0.5,1.7,0.6c1.6,0.8,3,1.9,3,4.3C278.8,205,277.2,206.8,275.1,206.8z
		 M293.7,195.3c2-0.6,3.9-2.1,3.9-4.5c0-3.6-3.4-4.8-5.8-4.8c-2.8,0-6.1,1.7-6.1,5.7c0,2.9,1.8,4.2,4.1,5.2
		c-2.3,0.5-4.7,2.3-4.7,5.2c0,3.9,3.4,5.4,6.2,5.4c3.2,0,6.9-1.9,6.9-6.3C298.3,197.8,296,196.3,293.7,195.3z M288.3,190.5
		c0-2.2,1.4-3.7,3.2-3.7c2,0,3.6,1.6,3.6,4.1c0,1.5-0.5,2.9-1.6,3.7c-0.1,0.1-0.4,0.3-0.6,0.3c-0.4,0-1.5-0.5-1.9-0.7
		C289.7,193.5,288.3,192.6,288.3,190.5z M291.6,206.8c-2.4,0-3.7-2-3.7-4.8c0-1.7,0.6-3.2,1.8-4.1c0.3-0.2,0.7-0.4,0.9-0.4
		c0.3,0,1.3,0.5,1.7,0.6c1.6,0.8,3,1.9,3,4.3C295.4,205,293.8,206.8,291.6,206.8z"/>
</g>
</svg>
