<?xml version="1.0" encoding="utf-8"?>
<!-- Generator: Adobe Illustrator 17.1.0, SVG Export Plug-In . SVG Version: 6.00 Build 0)  -->
<!DOCTYPE svg PUBLIC "-//W3C//DTD SVG 1.1//EN" "http://www.w3.org/Graphics/SVG/1.1/DTD/svg11.dtd">
<svg version="1.1" id="Layer_1" xmlns="http://www.w3.org/2000/svg" xmlns:xlink="http://www.w3.org/1999/xlink" x="0px" y="0px"
	 viewBox="32 0 480 320" enable-background="new 32 0 480 320" xml:space="preserve">
<g>
	<path fill="#313131" d="M267.6,212c0.1,0.4,0.3,1,0.3,1h0.1c0.1,0,0.6-0.5,0.8-0.8c0.3-0.3,0.6-0.9,0.2-1.4c-0.3-0.6-1.2-0.7-2-1
		c-0.9-0.3-1.3-0.6-1.3-0.6c-0.1,0.3,0.1,0.4,0.4,0.7C266.4,210.3,267.3,211.5,267.6,212z"/>
</g>
<g>
	<path fill="#313131" d="M340.9,85H190.5c2.2,24,3.4,49.5,3.4,73.2c0,34-2.3,63.8-3.6,76.8H341c-1.2-13-3.5-42.7-3.5-76.7
		C337.5,129.6,339.3,103,340.9,85z M277.3,100.1c0,1.5,0.2,3.1,0.3,4.2c8.9-1.6,17.2-2.5,17.2-2.5c0.1,0,0.1,0.2,0,0.3
		c0,0-15.9,5.8-16.5,6c1,4.8,4.9,14.9,7.7,18.5c0,0,0.7,0.9,0.9,1.1c0.2,0.3,0.8,0.6-0.6,3.1c-1.2,2.3-1.4,1.3-2.1,0.7
		c-1.4-1.2-4.7-2.2-5.6-1c-0.8,0.9,0.1,2.1,0.5,2.8c0.1,0.2,0.1,0.6,0.1,0.7c-0.4,0.4-1.1,0.8-2,0.7c-1.2-0.1-1.5-0.4-1.8-2.3
		c-0.1-0.9-0.5-2-1.1-2.6c-0.8-0.9-1.5-0.8-3-2.2c-2.7-2.2-4.1-4.6-3.5-8c0.2-1.4-0.4-0.2-0.5,0.3c-0.6,1.7-0.9,5.3,2,9.1
		c3.1,4.1,10.4,11.4,11.1,19.4c0,0.1-0.2,0.1-0.3,0.1c-3.6-8.8-14.1-13.7-22.3-15.1c0-12.6,3.4-23,15.4-26.8
		c0.3-0.1,0.2-0.9-0.2-0.8c-13.5,2.8-19.4,13.9-20,27c-2.3-0.2-4.9,0-6.1,0.3C246.9,123.1,251.1,101.7,277.3,100.1z M292.4,166
		c-0.8,3-1.3,4.6-3.8,4.7c-2.2,0-8.1,0.1-9.9,0c-0.1,0.4-1.4,7.9-1.4,7.9s-0.3,0.9,1,1c2.2,0.1,7.3,0,9-0.1c1.9-0.2,3.3-0.5,5.2-2.1
		c0.4,0.2,0.5,0.2,0.5,0.2s-1.4,3.6-1.8,4.5c-0.9,1.8-1.5,2.3-3.8,2.2c-7.3-0.2-18.3-0.1-18.3-0.1c2.1-9.6,3.8-19,4.4-23
		c0.1-1.1-0.4-1.4-1.1-1.5c-0.7-0.1-2.6-0.1-3.5,0.1c0-2.8,1.3-4.3,3.5-4.5c3.6-0.4,21.6-0.2,21.6-0.2c-0.6,2.3-1.2,4.8-3.2,4.8
		c0,0-9.5-0.2-9.7-0.2c-0.2,0.8-1.2,6.3-1.3,6.3C279.8,166,292.4,166,292.4,166z M212.4,182.6c0.6-2,4.7-17.4,7.1-28.8
		c0.3-1.3,0-2.3-1-2.4c-1-0.2-3.4-0.1-4.3,0.1c0-2.8,1.7-4.7,4-5.1c3.3-0.6,8.1-0.9,14.4-1.1c4.9-0.1,10.7,0,13.6,0.5
		c2,0.3,2.6,1.3,2.7,2.1c0.2,0.9,0.1,3.1-0.4,4.5c-1.5-1.2-4.3-1.6-8.4-1.7c-3.4-0.1-8.2,0.3-11.6,0.5c-0.7,2.2-3.2,10.7-3.9,14.7
		h12.4c-1,2-2.1,4.7-4.6,4.8c-1,0-6.1,0-8.9-0.2c-1.1,4.4-2.4,11-2.7,15.7c-0.1,1.2-0.1,3.8-0.1,3.8l-0.5,0.6
		c-3.5-0.8-6.5-1.9-7.4-2.9C212,186.6,211.7,185,212.4,182.6z M249.1,160.7c-1.4,6.4-3.7,17.6-4.3,24.7c-0.2,2.2-0.1,4.2,0.2,6.1
		l-0.4,0.6c-1.5-0.3-5.4-1.2-6.9-2.5c-1.2-1-1.2-2.6-0.7-5.2c0.8-4.2,4.3-20.4,4.5-22.1c0.1-1.2-0.1-1.6-0.8-1.8s-2.8-0.2-3.8,0
		c-0.1-2.4,1.4-4.3,3.3-4.5c3.3-0.3,9.7-0.2,11.5-0.2c7.1,0.1,11.2,1.4,12.8,6.1c1.6,4.5-1.7,10.6-8.4,12.2
		c3.5,4.9,6.3,8.2,8.6,10.7c2.8,2.9,6.4,4.2,9.3,4.1l0.3,0.4c-2.2,1.9-5.7,3.3-8.2,3.6c-1.9,0.2-2.9,0-4.1-0.9
		c-2.9-2.1-11.7-14-14.8-19.5c5.3,0.2,8.9-2.8,9.8-6.7C258.2,161,254.5,160.2,249.1,160.7z M267.7,219.3l-0.3,3.9l-2.9-2.6l-3.8,0.9
		l1.6-3.6l-2-3.3l3.9,0.4l2.5-3l0.8,3.8l3.6,1.5L267.7,219.3z M275.5,201.7c-1.3-0.7-2.9-3.3-4.1-5.9l0.3-0.3
		c4.1,0.9,9.4,0.4,13-0.6c7.9-2.1,13.8-6.1,18.7-11.9c1.2-7,0.7-26-9.6-31l0-0.4c1.9-0.5,4.4-1.1,6.2-1.3c2.2-0.2,3.7,0.2,5.4,2.4
		c3.5,4.4,5.3,13.1,4.9,21.2c3.3-4.6,7.9-15.4,4.9-26.8c1.6-0.2,4-0.4,5.4-0.2c2.8,0.3,3.5,2.3,3.3,6.2c-0.5,9-5.2,19.2-9,25.3
		c-9.9,15.8-24.6,23.2-34.5,23.8C278.4,202.3,276.6,202.4,275.5,201.7z"/>
</g>
</svg>
