<?xml version="1.0" encoding="utf-8"?>
<!-- Generator: Adobe Illustrator 17.1.0, SVG Export Plug-In . SVG Version: 6.00 Build 0)  -->
<!DOCTYPE svg PUBLIC "-//W3C//DTD SVG 1.1//EN" "http://www.w3.org/Graphics/SVG/1.1/DTD/svg11.dtd">
<svg version="1.1" id="Layer_1" xmlns="http://www.w3.org/2000/svg" xmlns:xlink="http://www.w3.org/1999/xlink" x="0px" y="0px"
	 viewBox="0 0 480 320" enable-background="new 0 0 480 320" xml:space="preserve">
<g>
	<path fill="#313131" d="M307.4,92.6c-18-18-41.9-27.9-67.4-27.9c-52.5,0-95.3,42.7-95.3,95.3c0,25.4,9.9,49.4,27.9,67.4
		s41.9,27.9,67.4,27.9s49.4-9.9,67.4-27.9s27.9-41.9,27.9-67.4C335.3,134.6,325.3,110.6,307.4,92.6z M240,252
		c-24.6,0-47.7-9.6-65-26.9c-17.4-17.4-26.9-40.5-26.9-65s9.6-47.7,26.9-65C192.3,77.6,215.4,68,240,68s47.7,9.6,65,26.9
		c17.4,17.4,26.9,40.5,26.9,65C332,210.7,290.7,252,240,252z"/>
	<path fill="#313131" d="M240,71.8c-48.7,0-88.2,39.5-88.2,88.2s39.5,88.2,88.2,88.2s88.2-39.5,88.2-88.2S288.7,71.8,240,71.8z
		 M227.5,76.8h6.6l6.3,16.5l6.3-16.5h6.8v23h-5V83.7L243,99.8h-5.1l-6.4-16.1v16.1h-4V76.8z M168.6,114.8l11.3-13.5
		c2.3-2.8,5.6-5,8.7-2.4c1,0.8,1.4,1.1,2.5,3.2c0.3,0.8,0.5,2.1,0,3.5c2.7-1.7,5.6-1.1,7.5,0.7c2.9,2.8,2.4,6-0.3,9.3l-11.9,14.2
		L168.6,114.8z M240,216.3c-31.1,0-56.3-25.2-56.3-56.3s25.2-56.3,56.3-56.3s56.3,25.2,56.3,56.3S271.1,216.3,240,216.3z
		 M292.5,130.2l-4.2-5.2l8.4-12.3v-0.1l-13.8,5.7l-4.3-5.2l14.6-18.7l3.6,4.4l-9.1,11.9l13.9-6l3.9,4.8l-8.7,12.4l13.6-6.4l3.6,4.4
		L292.5,130.2z"/>
	<path fill="#313131" d="M187.3,159.8h52.2v-52.4C210.5,107.3,187.3,129.8,187.3,159.8z"/>
	<path fill="#313131" d="M239.5,212.7c30,0,53.2-22.9,53.2-52.9h-53.2V212.7z"/>
	<polygon fill="#313131" points="240.4,93.2 240.4,93.3 240.4,93.3 	"/>
	<path fill="#313131" d="M186.1,104.7c-1.1-1-2.9-1-3.7-0.1l-6.8,8.1l4.2,3.5l6.7-8C187.4,107.3,187.4,105.8,186.1,104.7z"/>
	<path fill="#313131" d="M194.4,114.1c0.9-1.1,0.8-2.9-0.6-4c-1.2-1-3-0.7-3.8,0.2l-7.1,8.5l4.4,3.7L194.4,114.1z"/>
</g>
</svg>
