<?xml version="1.0" encoding="utf-8"?>
<!-- Generator: Adobe Illustrator 17.1.0, SVG Export Plug-In . SVG Version: 6.00 Build 0)  -->
<!DOCTYPE svg PUBLIC "-//W3C//DTD SVG 1.1//EN" "http://www.w3.org/Graphics/SVG/1.1/DTD/svg11.dtd">
<svg version="1.1" id="Layer_1" xmlns="http://www.w3.org/2000/svg" xmlns:xlink="http://www.w3.org/1999/xlink" x="0px" y="0px"
	 viewBox="32 0 480 320" enable-background="new 32 0 480 320" xml:space="preserve">
<g>
	<path fill="#313131" d="M244.2,157.6v38.9h8.3v-21.5c1.7,1.3,12.6,20.8,14.6,21.5h6.6c1.4-0.3,2.1-1.4,2.1-3.5v-36.6h-8.7
		c0,4.6-0.4,17.1,0.3,20.9c-0.9-0.3-0.6,0-2.1-2.4l-5.7-8.9c-5.4-8.6-4.7-9.5-14.4-9.5C244.4,156.5,244.2,156.8,244.2,157.6
		L244.2,157.6z"/>
	<path fill="#313131" d="M398.4,196.3h8.3l-0.3-21.5c2,1.3,9.2,15.2,14.9,21.5h6.2c1.6-0.2,2.2-0.9,2.2-3.1
		c0.1-4.7-0.7-31.9-0.1-33.5c0.4-1.3,1.2-1.4,1.6-1.5l0.1-1.8h-9.9v20.8c-1-0.7-11.1-16.9-11.3-17.2c-1.4-2.2-3.3-3.5-6-3.7h-5.6
		L398.4,196.3L398.4,196.3z"/>
	<path fill="#313131" d="M321.5,157.6v36.8c0,1.3,1.3,1.8,3.1,2.1h8v-16.7c1.4,0.4,0.6,0.2,2.2,2.6l6.1,9.5c2.3,3.3,3.7,4.3,6.4,4.5
		h7.6c0.6,0,1.3,0,2,0c-0.3-1.2-14.2-22.4-14.9-23.6c0.5-0.4,3-3.2,3.5-3.8c1.2-1.5,2.5-2.4,3.7-4c0.8-1,1-1.2,1.8-2l5-6.5
		c-11.7,0-9.5-1.5-18.5,9.3c-1.2,1.4-3.3,3.6-4.8,4.6v-13.9h-10.1C321.8,156.5,321.5,156.8,321.5,157.6L321.5,157.6z"/>
	<path fill="#313131" d="M186.5,193c-0.1,2.6,1.1,3.4,3.8,3.5h20.1c1.3,0,2.1-0.9,2.4-2.4v-4.9h-13.2c-1.2,0.1-1.9-0.3-2.1-1.4v-8.3
		h12.1v-7.6h-12.1v-7.6h15.3c0-4.1,0.9-6.9-2.1-7.6h-24.3V193L186.5,193z"/>
	<path fill="#313131" d="M222.6,194.7c0,1.1,1.3,1.7,2.4,1.7h8.3v-39.9h-10.8V194.7L222.6,194.7z"/>
	<path fill="#313131" d="M286.5,193c-0.1,2.6,1.1,3.4,3.8,3.5h20.1c1.3,0,2.1-0.9,2.4-2.4v-4.9h-13.2c-1.2,0.1-1.9-0.3-2.1-1.4v-8.3
		h12.1v-7.6h-12.1v-7.6h15.3c0-4.1,0.9-6.9-2.1-7.6h-24.3L286.5,193L286.5,193z"/>
	<path fill="#313131" d="M362.3,193c-0.1,2.6,1.1,3.4,3.8,3.5h20.1c1.3,0,2.1-0.9,2.4-2.4v-4.9h-13.2c-1.2,0.1-1.9-0.3-2.1-1.4v-8.3
		h12.1v-7.6h-12.1v-7.6h15.3c0-4.1,0.9-6.9-2.1-7.6h-24.3V193L362.3,193z"/>
	<path fill="#313131" d="M144.7,160.2l-0.2,35.6h10.8v-17.2l9.4,0l0,17.3h10.8v-39.4h-10.8v14.2c0.1,0.7-0.3,1.1-1,1h-7.3
		c-0.7,0-1-0.3-1-1v-14.2h-12.5C142.7,159.1,144.8,157.9,144.7,160.2L144.7,160.2z"/>
	<path fill="#313131" d="M127.9,149.1l7.6,5.7l-3,10.4c-3,2.1-6,4.2-8.9,6.3c-1.1,0.4-1.1-0.6-0.5-2.1l5-15.9
		c-5-3.7-10.1-7.5-15.1-11.2c-0.5-0.4-0.4-1.1,1-1.1l18.3,0.2c1.9-5.7,3.7-11.3,5.6-17c0.4-1.1,1.1-0.9,1.4-0.1l5.6,17.3h18.8
		c0.5,0,0.6,0.4,0.2,0.7l-9.2,6.6h-10.4l-2.9-8.8c-0.2-0.5-0.5-0.5-0.7,0l-3,8.7l-9.8,0C127.5,148.7,127.5,148.9,127.9,149.1
		L127.9,149.1z"/>
</g>
</svg>
