<?xml version="1.0" encoding="utf-8"?>
<!-- Generator: Adobe Illustrator 17.1.0, SVG Export Plug-In . SVG Version: 6.00 Build 0)  -->
<!DOCTYPE svg PUBLIC "-//W3C//DTD SVG 1.1//EN" "http://www.w3.org/Graphics/SVG/1.1/DTD/svg11.dtd">
<svg version="1.1" id="Layer_1" xmlns="http://www.w3.org/2000/svg" xmlns:xlink="http://www.w3.org/1999/xlink" x="0px" y="0px"
	 viewBox="32 0 480 320" enable-background="new 32 0 480 320" xml:space="preserve">
<g>
	<path fill="#313131" d="M93.2,179h113v-38h-113V179z M162.2,147h7.3l-9.8,10h12.5v-10h6v10h11.7l-9.8-10h7.3l12.5,12.5L187.3,172
		H180l9.8-9h-11.7v9h-6v-9h-12.5l9.8,9h-7.3l-12.5-12.5L162.2,147z"/>
	<path fill="#313131" d="M232.2,158.1c-6.6-1.7-7.9-2-7.9-4c0-2.2,2.1-3.1,4-3.1c2.8,0,5,0.9,5.2,3.9h5.6c0-6-5.1-8.4-10.6-8.4
		c-4.8,0-9.9,2.6-9.9,8c0,4.9,3.9,6.5,7.9,7.5c3.9,1,7.8,1.5,7.8,4.4c0,2.7-3.1,3.4-5.1,3.4c-3.1,0-5.8-1.8-5.8-4.8h-5.6
		c-0.1,6,5.4,9.3,11.2,9.3c7.2,0,11-3.6,11-8.5C240,159.9,234.1,158.6,232.2,158.1z"/>
	<path fill="#313131" d="M260.8,159.3c2.3-1.1,3.6-3.1,3.6-5.6c0-4.9-3.4-6.7-8.4-6.7h-12.8v27h13.1c4.8,0,9.3-2.5,9.3-7.8
		C265.6,162.9,264,160.2,260.8,159.3z M249.2,152h5.6c2.1,0,4,0.4,4,2.9c0,2.2-1.5,3.1-3.5,3.1h-6V152z M255.6,169h-6.4v-7h6.5
		c2.5,0,4.2,1,4.2,3.6C259.8,168.4,257.8,169,255.6,169z"/>
	<path fill="#313131" d="M286.7,159.3c2.3-1.1,3.6-3.1,3.6-5.6c0-4.9-3.4-6.7-8.4-6.7h-12.7v27h13.1c4.8,0,9.3-2.5,9.3-7.8
		C291.6,162.9,289.9,160.2,286.7,159.3z M275.2,152h5.5c2.1,0,4,0.4,4,2.9c0,2.2-1.5,3.1-3.5,3.1h-6V152z M281.5,169h-6.3v-7h6.4
		c2.5,0,4.2,1,4.2,3.6C285.8,168.4,283.8,169,281.5,169z"/>
	<path fill="#313131" d="M317,169.1c-5.2,0-7.2-4.3-7.2-8.7c0-4.6,2-9,7.2-9c2.9,0,5.4,1.6,5.8,4.6h5.6c-0.7-6-5.6-9.4-11.4-9.4
		c-8.2,0-13,6.1-13,13.9c0,7.6,4.8,13.5,13,13.5c6.5,0,11-4,11.6-11H323C322.5,167,320.5,169.1,317,169.1z"/>
	<polygon fill="#313131" points="332.2,174 338.2,174 338.2,163 349.2,163 349.2,158 338.2,158 338.2,152 350.2,152 350.2,147 
		332.2,147 	"/>
	<polygon fill="#313131" points="354.2,174 360.2,174 360.2,163 371.2,163 371.2,158 360.2,158 360.2,152 372.2,152 372.2,147 
		354.2,147 	"/>
	<polygon fill="#313131" points="385.2,174 391.2,174 391.2,163 402.2,163 402.2,158 391.2,158 391.2,152 404.2,152 404.2,147 
		385.2,147 	"/>
	<polygon fill="#313131" points="408.2,174 414.2,174 414.2,163 425.2,163 425.2,158 414.2,158 414.2,152 426.2,152 426.2,147 
		408.2,147 	"/>
	<path fill="#313131" d="M443,158.1c-6.6-1.7-7.9-2-7.9-4c0-2.2,2.1-3.1,4-3.1c2.8,0,5,0.9,5.2,3.9h5.6c0-6-5-8.4-10.5-8.4
		c-4.8,0-9.9,2.6-9.9,8c0,4.9,4,6.5,7.9,7.5c3.9,1,7.8,1.5,7.8,4.4c0,2.7-3.1,3.4-5.1,3.4c-3.1,0-5.8-1.8-5.8-4.8h-5.6
		c-0.1,6,5.4,9.3,11.2,9.3c7.2,0,11-3.6,11-8.5C450.8,159.9,444.9,158.6,443,158.1z"/>
</g>
</svg>
