<?xml version="1.0" encoding="utf-8"?>
<!-- Generator: Adobe Illustrator 17.1.0, SVG Export Plug-In . SVG Version: 6.00 Build 0)  -->
<!DOCTYPE svg PUBLIC "-//W3C//DTD SVG 1.1//EN" "http://www.w3.org/Graphics/SVG/1.1/DTD/svg11.dtd">
<svg version="1.1" id="Layer_1" xmlns="http://www.w3.org/2000/svg" xmlns:xlink="http://www.w3.org/1999/xlink" x="0px" y="0px"
	 viewBox="32 0 480 320" enable-background="new 32 0 480 320" xml:space="preserve">
<g>
	<path fill="#313131" d="M144,114.1v91.8h256v-91.8H144z M272,201.7c-69.6,0-125.9-18.8-125.9-42.1c0-23.2,56.4-42.1,125.9-42.1
		c69.5,0,125.9,18.8,125.9,42.1C397.9,182.9,341.5,201.7,272,201.7z"/>
	<path fill="#313131" d="M201.6,172.7v-28.6c0-1.5,1-2.1,1-2.1h-23.3c0,0,1,0.6,1,2.1v28.6c0,0.3,0.1,2.5-1.2,3.1l23.8,0
		C201.5,175.2,201.6,173,201.6,172.7z"/>
	<path fill="#313131" d="M371,173.2l-11.4-28.3c-0.6-1.8,0.5-2.9,0.5-2.9h-32.3c0,0,1.2,1,0.5,2.8l-10.8,28.4
		c-0.7,1.6-1.9,2.6-1.9,2.6h20.3c0,0-1-1.2-0.7-2.6l1.6-4.1h10l1.6,4.1c0.4,1.4-0.7,2.6-0.7,2.6h25.2
		C373.1,175.8,371.9,175,371,173.2z M338.9,163c0,0,2.4-6,2.5-6.2c0.3-0.7,0.3-1.7,0.3-1.7h0c0,0,0,1,0.3,1.7
		c0.1,0.2,2.5,6.2,2.5,6.2H338.9z"/>
	<path fill="#313131" d="M293.8,165.4l0-2.7h11c0.6,0,2.5,0.2,3,0.8l0-10.3c-0.5,0.7-2.4,0.8-3,0.8h-11v-2.7h14.4
		c2.1,0,3.6,1.5,3.6,1.5V142h-38.9c0,0,1,0.6,1,2.1v28.6c0,0.3,0.1,2.5-1.2,3.1l39.1,0v-11.9c0,0-1.4,1.5-3.6,1.5L293.8,165.4
		L293.8,165.4z"/>
	<path fill="#313131" d="M264.9,173l-10.8-17.2l8.5-11.8c1-1.3,2.1-1.9,2.1-2c0,0-23,0-23,0s1.3,0.9,0.2,2.5l-7.8,10.9l0-11.3
		c0-1.5,1-2.1,1-2.1h-22.7c0,0,1,0.6,1,2.1v28.6c0,0.3,0.1,2.5-1.2,3.1l22.9,0c-1.3-0.6-1-2.8-1-3.1V162l7.1,11.8
		c0.7,1.6-0.1,2.1-0.1,2.1H268c0,0-0.3-0.2-0.7-0.5C266.7,174.8,265.9,174.2,264.9,173z"/>
</g>
</svg>
