<?xml version="1.0" encoding="utf-8"?>
<!-- Generator: Adobe Illustrator 17.1.0, SVG Export Plug-In . SVG Version: 6.00 Build 0)  -->
<!DOCTYPE svg PUBLIC "-//W3C//DTD SVG 1.1//EN" "http://www.w3.org/Graphics/SVG/1.1/DTD/svg11.dtd">
<svg version="1.1" id="Layer_1" xmlns="http://www.w3.org/2000/svg" xmlns:xlink="http://www.w3.org/1999/xlink" x="0px" y="0px"
	 viewBox="32 0 480 320" enable-background="new 32 0 480 320" xml:space="preserve">
<g>
	<path fill="#313131" d="M200.8,164.7c0-4.1,3-5.2,5.3-5.2c2.4,0,4.8,0.6,6.9,1.6l0.6-6.2c-2.5-0.9-5.2-1.3-8.1-1.3
		c-6,0-11.8,3.1-11.8,11.4c0,12.4,14.8,9.5,14.8,16.6c0,3.4-3.4,4.8-6,4.8c-2.7,0-5.3-0.9-7.7-2.3l-0.6,6.8c3.3,0.9,5,1.5,8.7,1.5
		c6.8,0,12.7-3.1,12.7-11.3C215.6,168.5,200.8,171.2,200.8,164.7z"/>
	<polygon fill="#313131" points="248.8,184.5 248.7,184.5 243.2,164 235.7,164 230.6,184.5 230.5,184.5 225,164 218.1,164 
		226.5,191.7 234,191.7 239.3,170.6 239.4,170.6 244.8,191.7 252.5,191.7 260.2,164 254,164 	"/>
	<rect x="263.9" y="164" fill="#313131" width="6.5" height="27.7"/>
	<rect x="263.9" y="152.1" fill="#313131" width="6.5" height="6.9"/>
	<path fill="#313131" d="M282.2,171.7c0-2.4,2.1-3.1,3.8-3.1c2.4,0,3.8,0.4,5.8,1.2l0.4-5.4c-2-0.5-4-1-7.1-1
		c-5.1,0-9.8,2.6-9.8,8.6c0,10,11.3,6.3,11.3,11.7c0,2.7-2.6,3.4-4.3,3.4c-2.2,0-4.4-0.7-6.4-1.8l-0.4,5.9c2.4,0.7,4.9,1.2,7.4,1.2
		c5.3,0,10.5-2.6,10.5-9C293.5,173.3,282.2,176.1,282.2,171.7z"/>
	<path fill="#313131" d="M303.4,171.7c0-2.4,2.1-3.1,3.8-3.1c2.4,0,3.8,0.4,5.8,1.2l0.4-5.4c-2-0.5-4-1-7.1-1
		c-5.1,0-9.8,2.6-9.8,8.6c0,10,11.3,6.3,11.3,11.7c0,2.7-2.6,3.4-4.3,3.4c-2.2,0-4.4-0.7-6.4-1.8l-0.4,5.9c2.4,0.7,4.9,1.2,7.4,1.2
		c5.3,0,10.5-2.6,10.5-9C314.7,173.3,303.4,176.1,303.4,171.7z"/>
	<path fill="#313131" d="M331.4,186.8c-4.6,0-6.7-3.9-6.7-9c0-5.2,2.6-8.8,6.6-8.8c2,0,3.3,0.4,4.4,1l0.6-5.7
		c-1.8-0.6-3.7-0.9-6.3-0.9c-7.8,0-12.1,6.3-12.1,14.4c0,8.4,4.1,14.6,12.3,14.6c2.7,0,4.6-0.3,6.5-0.9l-0.3-6
		C335.3,186,333.3,186.8,331.4,186.8z"/>
	<path fill="#313131" d="M361.3,178.6v-3.5c0-8.2-3.2-11.7-10.8-11.7c-2.8,0-6.2,0.8-8.7,2.1l0.2,6.2c2.2-1.8,4.9-3,7.7-3
		c3.8,0,5.6,1.5,5.6,6h-3.6c-2.7,0-5.9,0.3-8.4,1.6c-2.5,1.3-4.3,3.8-4.3,7.9c0,5.3,4.3,8.2,8.7,8.2c3,0,6.2-1.7,7.7-4.8h0.1
		c0,0.9,0,2.7,0.3,4.1h5.7c-0.1-2.1-0.2-4.1-0.3-6.2C361.4,183.5,361.3,181.4,361.3,178.6z M354,184.6c-1,1.5-2.6,2.5-4.6,2.5
		c-2.3,0-4.1-1-4.1-3.4c0-4.2,4.3-4.8,7.2-4.8h2.8C355.4,181.1,355.1,183.1,354,184.6z"/>
	<path fill="#313131" d="M381.9,163.4c-3.4,0-6.2,1.2-8.2,4.4h-0.1V164h-6.2v27.7h6.5v-13.5c0-3.5,1-9.2,5.7-9.2
		c4.2,0,4.2,4.6,4.2,8v14.8h6.5v-17.5C390.4,168,387.8,163.4,381.9,163.4z"/>
	<path fill="#313131" d="M408.5,186.8c-2.5,0-3.1-2.2-3.1-4.6v-12.9h5.8V164h-5.8v-7.8l-6.5,2.3v5.5h-4.8v5.3h4.8v14.1
		c0,5.5,2.8,9,7.9,9c1.9,0,3.4-0.2,4.8-0.6l-0.2-5.7C410.7,186.5,409.6,186.8,408.5,186.8z"/>
	<path fill="#313131" d="M426.8,163.4c-7.4,0-13.1,5.5-13.1,14.7c0,8,4.8,14.3,13.1,14.3c8.3,0,13.1-6.3,13.1-14.3
		C439.9,168.9,434.2,163.4,426.8,163.4z M426.8,186.8c-4.9,0-6.3-5-6.3-9.6c0-4.1,2-8.2,6.3-8.2c4.3,0,6.3,4,6.3,8.2
		C433.1,181.8,431.8,186.8,426.8,186.8z"/>
	<path fill="#313131" d="M104.1,192.1h64.6v-64.4h-64.6V192.1z M106.8,130.3H166v59h-59.2V130.3z"/>
	<polygon fill="#313131" points="133,133.3 116.6,159.8 132.9,186.4 162.6,186.4 146.3,159.9 162.7,133.3 	"/>
</g>
</svg>
