<?xml version="1.0" encoding="utf-8"?>
<!-- Generator: Adobe Illustrator 17.1.0, SVG Export Plug-In . SVG Version: 6.00 Build 0)  -->
<!DOCTYPE svg PUBLIC "-//W3C//DTD SVG 1.1//EN" "http://www.w3.org/Graphics/SVG/1.1/DTD/svg11.dtd">
<svg version="1.1" id="Layer_1" xmlns="http://www.w3.org/2000/svg" xmlns:xlink="http://www.w3.org/1999/xlink" x="0px" y="0px"
	 viewBox="32 0 480 320" enable-background="new 32 0 480 320" xml:space="preserve">
<g>
	<path fill="#313131" d="M184.4,164c0-7.1,2.2-14.1,6.6-20.8c0.5-0.8,1.1-1.7,1.7-2.5c-21.2,1.8-42.8,1.1-65.5-4.8v59.4
		c26.2,4.7,49.9,4,72.3,1c-6.9-6.9-11.7-14.8-13.9-23.2C184.8,170,184.4,167,184.4,164z"/>
	<path fill="#313131" d="M365.4,121.2c4.3,4.9,6.9,10.5,7.8,16.7c2,13.5-7.9,27.2-18.5,37.7c19.3,2.6,39.8,8.5,62.1,19.6v-59.4
		C398.9,128.1,381.8,123.5,365.4,121.2z M410.5,162.3h-11.4v11.4h-11.4v-11.4h-11.4V151h11.4v-11.4h11.4V151h11.4V162.3z"/>
	<path fill="#313131" d="M208.8,197.5c17.8,14.8,43.2,23.3,69.7,17.6c12.8-2.8,25.9-10.2,40.1-18.6c-15.2-4.2-29.9-6.5-46.2-6.5
		C248.4,190,229.8,192.5,208.8,197.5z"/>
	<path fill="#313131" d="M366.6,137.8c-2.2-14.9-15.6-24.8-34.1-30.2c-18.5-5.3-42.1-6-64.6-2.2c-20.5,3.4-42.1,11.5-57.4,22.9
		c-15.3,11.4-24.5,26-20.2,42.4c2.5,9.5,8.6,18.2,17.2,25.2c20-4.9,39.4-9.7,67.4-9.7c15.8,0,34.1,2.3,49.6,5.3
		c12.2-7.8,23.4-16.9,31.2-26.3C363.4,155.9,367.9,146.4,366.6,137.8z M284,120.2c3.2,2.3,5.5,8.3,5.5,8.3c1.5-2.6,2.6-3.9,4.6-6.1
		c2.7-3,6.3-5.1,6.3-5.1s2.1,2.1,2.7,5.1c0.4,2.1,0.2,5.9,0.2,5.9c0,0,5.9-6.7,13-7.9c-4,4.8-7.5,10-10,15.6h-26.1
		C282.6,131.2,283.7,125.4,284,120.2z M278.7,139.4h26.2l-1.2,3l-26.3,0L278.7,139.4z M323.2,174.3l-6.9,0c0,0,2.6-6.1,5.6-12.1
		c1.8-3.6,2-6.4-0.8-8.3c-4-2.6-9,0.6-12.6,8.2c-1.7,3.6-5.6,12.1-5.6,12.1h-6.7c0,0,2.8-6.1,5.8-12.1c1.8-3.6,2-6.4-0.8-8.3
		c-4-2.6-9.1,0.6-12.7,8.2c-1.7,3.6-5.7,12.1-5.7,12.1h-6.7c0,0,3-6.1,5.9-12.1c1.8-3.6,2.1-6.4-0.7-8.3c-4-2.6-9.3,0.6-12.9,8.2
		c-1.7,3.6-5.5,12.1-5.5,12.1h-6.7c0,0,2.8-6.1,5.8-12.1c1.8-3.6,2.3-6.4-0.5-8.3c-4-2.6-9.6,0.6-13.1,8.2
		c-1.7,3.6-5.5,12.1-5.5,12.1l-19.6,0c-12.9,0-24-11.6-18-25.5c8.4-19.3,31.8-17.7,42.3-17.7l-2.2,5c-7.3,0-26-0.9-32.5,13.5
		c-4.6,10.3,2.7,19.2,14.5,19.2h11.3c0,0,2.6-5.8,4.7-9.7c4.4-8,10.4-11.2,16.5-11.2c6.6,0,9.3,6.2,9.3,6.2s5-5.7,12-5.7
		c6.6,0,7.6,5.6,7.6,5.6s5.3-5.6,12.3-5.6c6.6,0,7.8,5.4,7.8,5.4s5.5-5.4,11.3-5.4c4.4,0,12.4,3.3,8.3,12.9
		C325.9,167.3,323.2,174.3,323.2,174.3z M239.9,148.9l-2.5,5.4h-22.5l2.4-5.4L239.9,148.9z M335.1,174.4h-6.9l11.4-25h6.8
		L335.1,174.4z M349.3,143.2h-6.7l2.6-6.1h6.9L349.3,143.2z"/>
</g>
</svg>
