<?xml version="1.0" encoding="utf-8"?>
<!-- Generator: Adobe Illustrator 17.1.0, SVG Export Plug-In . SVG Version: 6.00 Build 0)  -->
<!DOCTYPE svg PUBLIC "-//W3C//DTD SVG 1.1//EN" "http://www.w3.org/Graphics/SVG/1.1/DTD/svg11.dtd">
<svg version="1.1" id="Layer_1" xmlns="http://www.w3.org/2000/svg" xmlns:xlink="http://www.w3.org/1999/xlink" x="0px" y="0px"
	 viewBox="0 43 480 320" enable-background="new 0 43 480 320" xml:space="preserve">
<g>
	<path fill="#313131" d="M190.3,188.3L190.3,188.3c0.7,0.8,0.7,2,1.6,2.7l0,0c1.1,0.2,2.1-0.3,3-0.9c0.5-0.4-0.2-1-0.3-1.4l0,0
		c-0.5-0.7-0.2-2.1-1.4-2.1c-1.3,0.2-2.5,0.2-3.5,0.2l0,0l-0.4,0.2l0,0C189.1,187.7,190.1,187.8,190.3,188.3z"/>
	<path fill="#313131" d="M288,187.1c-0.1,0-0.1,0-0.2,0c-1,0.2-2.1,0-3.1,0.1l0,0l0,0c-0.5,0.7-1,1.7-0.7,2.6c0.3,0.7,1.2,0.8,1.8,1
		c0.6,0.1,1.6,0.3,1.9-0.4c0.5-1.2,0.7-2.1,0.8-3l0,0l0,0C288.5,187.3,288.2,187.1,288,187.1z"/>
	<path fill="#313131" d="M137.1,191.9c0.1,0.1,0.1,0.1,0.2,0.2l0,0c0.4,0.2,0.9,0.2,1.4,0.1c1.1-0.7,1.9-1.9,2.5-3l0,0l0,0
		c-0.2-0.8-1-1.2-1.7-1l0,0c-0.8,0.7-1.7,1.3-2.5,1.8c-0.4,0.3-0.2,0.8-0.3,1.2C136.6,191.5,136.8,191.7,137.1,191.9z"/>
	<path fill="#313131" d="M339.3,188.1c-0.5,0-1,0.6-1.4,1.1l0,0l0,0c0.3,1.1,1.6,3.1,2.9,3.2l0,0c0.5,0,0.9-0.3,1.3-0.6
		c0.3-0.4,0.6-0.8,0.4-1.2l0,0c-0.4-0.5-0.8-0.9-1.3-1.3C340.8,189,340,188.1,339.3,188.1z"/>
	<path fill="#313131" d="M132.6,197.5c0.8,0.3,1.6,0.6,2.4,0.8l0,0l0.2-0.1l0,0c0.4-1.4,0.7-2.9,1.3-4.2v-0.4l0,0
		c-0.4-0.6-0.9-1.3-1.6-1.4l0,0l0,0c-0.6,0.3-1.2,0.8-1.4,1.5c-0.2,1.1,0,2.3-0.8,3.1l0,0l0,0C132.6,197,132.3,197.3,132.6,197.5
		L132.6,197.5z"/>
	<path fill="#313131" d="M342.5,194.1c0.5,1.4,0.7,2.3,1,3.6l0,0c0.1,0.2,0,0.8,0.4,0.8l0,0l2.3-0.8l0,0l0,0
		c0.4-0.7-0.5-1.4-0.6-2.1c-0.1-0.8,0-1.8-0.5-2.5l0,0c-0.5-0.4-0.9-0.9-1.6-0.8l0,0C343.2,192.8,342.3,193.3,342.5,194.1
		C343,195.5,342.5,193.4,342.5,194.1z"/>
	<path fill="#313131" d="M339.5,198.3c0.7,0,1.4-0.1,2.2-0.1l0,0l0.3-0.2l0,0c-0.2-1.5-0.6-2.7-1.2-4l0,0l0,0
		c-1.9,0.1-2.8-1.9-3.9-3.1c-0.9-1-2.7-1.7-2.7-3.2l0,0c-0.6-1.1-0.4-3.6-1.9-4.1c-1.6-0.6-3.6,0.3-4.7-1.3c-1-1.1,0.1-2.3,0.3-3.4
		c0.5-1.5,0.5-3.3,0.3-4.6c0-0.8-0.6-1.5-0.4-2.3c0.4-0.7,1.2-0.2,1.7-0.1c2.1,0.6,4.4,0.3,6.4-0.5c2.6-1.3,4.6-3.9,4.5-6.8
		c-0.2-2.1-1.2-4.1-2.4-5.8c-0.8-1-1.6-1.9-2.5-2.7c-0.8-0.7-2.3-1.6-2.6-2.7c-0.1-1.4,1.6-0.8,2.4-1.1c2-0.5,3.9-1.3,4.8-3.3
		c0.6-1.4,0.7-3,0.4-4.5c-0.1-0.2-0.1-0.6-0.4-0.6l0,0l0,0c-0.8,0.7-1.5,1.3-2.5,1.6c-1.2,0.3-2.5,0.4-3.6,0.9
		c-2.1,0.9-4.2,2.1-5,4.1c-0.2,1,0,2.1,0.5,3.1c2.3,3.6,12.1,9.7,5.9,14.2c-3,1.8-6.7,0.1-9.3-1.5c-3.1-1.9-6-4.3-9.5-5.4
		c-2.7-1.2-5.9-0.9-8.3-2.8c-1.8-1.1-3.4-2.7-5.5-3.2c-1.4-0.5-2.9-0.4-4.2-1.1c-2.1-1.8-4.2-3.2-6.9-4.1c-1.4-0.4-2.8-0.8-4.2-1.1
		c-1.4-0.3-1.9-1.9-3-2.6c-2.4-1.9-6.1-3.6-8.8-1.5c-5.5-8.3-13.9-14.6-23.4-17.5c-9.6-2.9-20.2-2.2-29.4,1.9
		c-7.4,3.3-13.8,8.7-18.3,15.5c-1.8-0.4-3.8-0.3-5.4,0.4c-1.9,1-3.5,2.4-5.5,3.1c-2.3,1.1-5,1.4-7.2,2.8c-1.9,1.2-3.5,4.2-6.1,3.8
		c-2.3-0.1-4.5,0.8-6.3,2.2c-1.5,1.4-3.1,3.2-5.2,3.6c-1.9,0.8-4,0.4-5.9,1.1c-3.1,0.8-5.4,3.1-7.8,4.9c-2.5,1.5-5.1,3-8.1,3
		c-2.1-0.2-4-1.6-4.7-3.5c-0.6-2.3,0.1-4.6,1.9-6.1c1.6-1.9,4-3.1,5.6-5.1c1.3-1.6,1.8-4.2,0.4-5.9c-1.4-1.4-3.4-1.9-5.3-2.3
		c-1.1-0.2-2.3-0.4-3.3-1s-1.9-1.4-3-1.9l0,0l0,0c-0.5,0.8-0.7,1.7-0.7,2.8c0.3,2.3,2,4.4,4.3,5.2c1.3,0.6,2.7,0.1,4.1,0.4
		c0.3,0.1,0.7,0.5,0.7,0.9v0.1c-0.1,0.3-0.1,0.6-0.4,0.9c-2.1,1.7-4.2,3.4-5.9,5.5c-2.5,2.7-2.1,7.6,0.2,10.2
		c1.2,1.4,2.9,2.3,4.6,2.7c2.3,0.6,4.6,0.1,6.8-0.4c0.2,0,0.3,0.2,0.4,0.4c0.2,1.5,0,2.9,0.2,4.4c0.3,1.4,0.9,2.8,1.4,4.1
		c0,0.3,0.1,0.9-0.3,1.3c-1.1,0.9-2.3,1.4-3.3,1.9l-2.8,0.2l-0.6,0.3l0,0c-1,1.1-1.1,2.6-1.8,3.9c-0.9,1.4-2.5,2.1-3.8,3l0,0
		c-0.8,1.3-1.6,2.4-3.2,2.6l0,0l0,0c-1,1.2-1.2,2.7-1.5,4.2l0,0l0.1,0.1l0,0c1.6,0.1,3.3,1,4.9,0.1c1.4-0.6,1.7-2.3,2.7-3.3
		c0.8-0.9,2-0.2,2.9,0c1.4,0.1,2.5-0.9,3.7-1.4c0.9-0.6,1.5-1.5,2.4-2.1c1.8-0.8,3.9-0.4,5.7,0l0,0c1.3,0.3,2.8,0.2,4.1-0.4
		c1.1-0.7,2.2-1.6,3.5-1.9c1.1-0.6,1.7-1.8,2.1-2.9v-0.1c0.4-1,1.3-1.8,1.2-2.9l0,0l0,0c-0.3-0.3-0.6-0.8-1.1-0.8l0,0l0,0
		c-0.5,0.8-1,1.6-1.6,2.3c-2.6,3.5-6.7,3.9-10.1,3.9c-3.9-0.1-7.7,1.2-10.3,4.2c-0.2,0.1-0.4,0-0.5-0.1c-0.1-0.4,0.3-0.7,0.4-1
		c2.6-3.7,6.9-4.3,10.3-4.3c2.3-0.2,4.7-0.5,6.7-1.8c1.8-1.1,3.1-3,3.9-5c0.5-2.3,0.6-4.7,1.2-7c0.1-0.2,0.3-0.3,0.5-0.2
		c0.2,0,0.4,0.2,0.4,0.4c-0.3,2-0.7,4.8,0.2,7.2l0,0c1.8,2.3,5,0.7,7.3,0.6c2.4-0.2,4.7,0.7,7,0.8c1.1,0,2.5,0.4,3.5-0.4l0,0
		c0.3-0.4,0-0.9-0.1-1.3c-0.1-0.7-0.6-1.5,0.1-2.1c0.2-0.1,0.5-0.1,0.6,0.1c0.3,0.9,0.5,1.9,1.1,2.7c1,1.3,2.6,2.5,4.5,3.5
		c1.3,0.9,2.8,2.3,2.9,4.4c0,1-0.9,1.6-1.6,2c-1.2,0.6-2.6,1.1-4,1c-1.9-0.9-2.4-3-3.7-4.5c-1.3-1.4-4.2-0.9-5.8-0.3l0,0
		c-0.2,0.2-0.3,0.5-0.3,0.9l0,0c0.7,1.2,1.4,2.4,2.1,3.6l0,0c0.8,0.5,2-0.3,2.7,0.6c0.6,1,1,2.1,2,2.8c0.9,0.8,2.4,1.2,3.5,0.7
		c2.8-0.9,5.5-1.7,7.9-3.1h0.8c1-0.1,2.2,0,2.9-0.8c0.2-0.3,0.4-0.6,0.7-1c5.5,8.4,14,14.6,23.6,17.4c9.7,2.8,20.3,2.1,29.5-2.1
		c7.1-3.2,13.2-8.4,17.6-14.8c0.1,0.2,0.2,0.4,0.3,0.6l0,0c0.7,0.8,1.7,0.1,2.5,0.3c0.9,0.2,1.2,1.3,2.1,1.5c2,0.7,4.1,1,6.1,1.8
		c1.1,0.3,2.5,0.7,3.4-0.1c1.3-0.7,1.6-2.1,1.8-3.4c0.4-0.5,1.2-0.3,1.8-0.5l0,0c1.1-0.7,1.5-2.1,2.3-3l0.2-0.5l0,0l0,0
		c-0.1-0.3-0.3-0.5-0.7-0.6h-3.8c-1.7,0.2-1.9,2.1-2.6,3.3c-0.4,0.7-1.2,1-2,0.9c-1.7-0.5-3.9-0.7-4.7-2.6c-0.1-0.3-0.2-1,0.2-1.4
		c0.8-1,2-2.2,3.1-3.1c1.6-0.3,3.2-1.5,4-3c0.4-0.6,0.4-1.5,1.1-2c0.2,0,0.4,0,0.6,0.2c0.3,1-0.3,2-0.6,2.9l0,0l0,0
		c3.8,0.4,7.4-1.2,11.2-1c2.5,0,5.7,1,7.8-0.9c2.1-1.9,1.1-5.7,0.7-8l0.2-0.3c0.2-0.1,0.4,0,0.6,0.2l0,0c1.3,3.5,1.1,7.3,3,10.6
		c1.9,3.3,5.3,4.9,9,4.1c3.8-0.3,7.4,1.4,9.7,4.4v0.2c-0.1,0.1-0.2,0.3-0.4,0.3l-0.3-0.3c-2-1.5-4-3.1-6.5-3.4
		c-2.6-0.5-5.4,0.8-7.9-0.2c-2.9-1-5.2-4-6.2-6.5l0,0h-0.3c-0.2,0-0.4,0.3-0.4,0.5l0,0l0.4,2.3c0.4,1.6,1,4,3,4.9
		c1.5,0.9,3.1,2.2,5,1.7c3.2-0.7,6.6,0.2,9.2,2.1c0.9,0.5,1.5,1.3,2.4,1.7c1,0.4,2.2,0.2,3-0.5c1.8-0.6,2.4,1.8,3.5,2.6
		C337.8,198.3,338.8,198.3,339.5,198.3z M277,152.7c0.4-0.2,1.1-0.3,1.3,0.2c0.3,0.4,0,0.8-0.3,1.2c-1.5,1.5-3.3,2.8-4.4,4.6
		c-0.2,0.3-0.9,1.9-1.2,1.9c-0.3-0.9,0.1-1.8,0.3-2.6C273.5,156.1,275,154.2,277,152.7C277.2,152.5,275,154.2,277,152.7z
		 M203.6,155.8c0.2-0.2,0.6-0.2,0.9-0.1c0.6,0.4,0.9,1,1.3,1.6c0.6,1.5,0.7,3.6,0.2,5.5c-0.1,0.1-0.2,0.1-0.2,0
		c-0.2-1.3-0.5-2.6-1-3.8C204.4,158,203.1,156.7,203.6,155.8C203.6,155.6,203.2,156.4,203.6,155.8z M281.2,181.9l-2.2,3.3
		c-0.5,0.7-1,1.5-1.2,2.4s-0.1,1.8,0,2.7c-0.1,0-0.2-0.2-0.3-0.2c-0.6-1.3-1.2-2.8-0.6-4.1l2.8-4.4l0.1-0.3l0,0l0,0
		c-0.5-0.3-1.3-0.6-2-0.8l0,0l0,0c-0.3,0.1-0.5,0.4-0.7,0.7l-0.1,0.1l-2.7,5c-0.2,0.6-0.4,1.1-0.2,1.7c0.1,0.7,0.3,1.2,0.5,1.6
		c-5.3,8.4-13.6,14.7-23.1,17.5c-9.5,2.7-20,1.9-28.9-2.5c-6.8-3.3-12.6-8.6-16.7-15l0.1-0.1c0.1-0.1,0.2-0.3,0.2-0.4
		c0.6-0.8,0.4-2,0.1-3.1l0,0c-1.2-1.5-1.9-3.2-2.6-5l0,0l0,0c-0.6-0.2-1.2-0.6-1.9-0.5l0,0c-0.3,0.1-0.8,0.1-1,0.5l0,0l2.9,5.7
		c0.2,0.4,0.4,1,0.3,1.6c-0.5,1.4-1.1,2.5-2,3.2c-0.2,0.2-0.3,0.2-0.5,0c0.4-1.3,0.9-2.6,0.8-4l-2.8-5.1c-0.3-0.7-0.9-1.3-0.9-2.1
		c0-0.4,0.4-0.6,0.6-0.7c1.2-0.4,2.7-0.3,3.7-1.3c1.3-2,2-3.9,2.3-6.2c0.1-0.1,0.1-0.3,0.3-0.3l0,0c0.2-0.1,0.2,0.2,0.3,0.3
		c0.4,2.6-0.2,5.1-1.6,7l0,0c-0.1,0.2-0.2,0.6,0.1,0.8l0,0c1.4,0.4,2.8,0,4-0.6c1.4,0,2.8-0.3,4.2-0.5c0.1,0.1,0.3,0.2,0.3,0.3
		c-0.9,1-1.4,2.1-1.7,3.5c-1.1,1.1-2.7,2.1-2.8,3.8l0,0l0,0c0.2,1,1.7-0.5,1.7,0.5l-1.1,1.6c-0.6,1,0.1,2,0.1,3l0,0
		c0.3,0.8,1.2,1.1,1.9,1.1c1.6-0.1,3.1-0.7,4.6-1.2c1.7-0.7,3.6-0.7,5.4-0.4c1.7-0.1,3-1.3,4.3-2.4l0,0c0.8,0,1.4,0.6,2,1.2
		c0.6,0.6,1.3,1.2,2.1,1.6c1.6,0.9,3.4,1.2,5.2,1.2l0,0l0.3-0.2l0,0c0.2-0.2,0.1-0.6-0.1-0.7l-1.7-0.9c-1.1-0.7-2.3-1.5-2.9-2.6
		c-0.7-1.4-1.1-2.9-2-4.2c-0.3-0.6-0.8-1-1.1-1.6l0,0c0-0.1,0.1-0.1,0.2-0.1c1.8,0.6,3,2.4,3.9,4.2c1.4,2,3.5,3.6,6.1,3.2l0,0
		l0.2-0.2c0.1-0.2,0.1-0.4,0-0.5l0,0l-1.3-0.7c-1.3-0.8-2.2-2.1-3-3.4c-0.4-0.7-0.9-1.5-1.4-2.2s-1.3-1.1-1.8-1.8
		c-1.7-4.7-2.9-8.7-3.3-13.5c-0.3-1.1-0.5-2.2-1.1-3.3c-0.6-1.2-1.4-2.3-2.2-3.3c-1.6-2.1-3.3-4.1-5-6.1c-0.2-0.2-0.6-0.4-0.7-0.7
		l0,0l-8.7-7.2c-0.7-0.6-1.6-1-2.3-1.3c5.6-8.3,14.3-14.3,24-16.7s20.2-1,28.9,3.8c5.9,3.2,11,8,14.7,13.6c-3.9,3.3-8.2,6-12.1,9.2
		c-1.9,1.6-3.8,3.3-5.3,5.3c-1.5,1.9-2.4,4.1-3.1,6.4c-1.4,4.2-2.2,8.6-3.5,12.8c-1.3,4-3.4,7.6-7.1,9.9l0,0
		c-0.1,0.2-0.1,0.6,0.1,0.7l0,0c1.7,0.4,3.5-0.2,4.7-1.5c1.4-2.2,2.5-3.7,3.9-5.2l0.3-0.2c0.8,0.2-0.4,1.7-0.6,2.1
		c-0.6,0.8-1,1.6-1.4,2.6c-0.7,1.7-2.2,2.9-3.6,4.1l0,0v0.2c0,0.2,0.2,0.4,0.4,0.4c1.6,0.1,3.2-0.5,4.5-1.4c0.7-0.5,1.3-1,1.9-1.6
		c0.6-0.5,1.2-1.6,2.1-1.4c1,0.8,1.8,1.8,3.1,2.1l0,0l0,0c1.4-0.2,2.7-0.4,4.1-0.3c1.9,0.6,3.8,1.4,5.7,2.1l0,0l0,0
		c1,0,1.7-1,2.3-1.8c0.4-0.9-0.2-1.9-0.1-2.8c0.5-0.3,1,0.1,1.5-0.1l0,0c0.3-0.2,0.4-0.4,0.4-0.7c-0.4-1.7-1.8-2.9-2.3-4.5
		c-0.7-2.1-3.1-3.2-3.5-5.4c0.1-0.2,0.3-0.3,0.4-0.2c1.5,1.1,3,2.6,4.9,2.9c1.5,0.1,3,0.3,4.4,0.2c0.2-0.1,0.4-0.3,0.4-0.6
		c-1.4-3-2.9-6.9-1.9-10.3c0.1-0.1,0.3-0.4,0.5-0.3c0.3,0.1,0.4,0.4,0.5,0.6v0.3c0.2,3,0.4,5.8,2.2,8.1c0.8,1.2,2.2,1.6,3.2,2.5
		C281.3,180.5,281.3,181.4,281.2,181.9z M219.8,184.5h0.1c0.3,0,0.5,0,0.6,0.3c0.1,0.7,0.1,1.5-0.5,1.9c-0.7,0.2-1.4,0.3-2.2,0.3
		C216.6,186.5,219.1,184.6,219.8,184.5z M218.8,172.6c0.1-0.2,0.2-0.5,0.3-0.7c0.6-0.6,0.5-2.4,1.8-1.9c0.9,0.5,1.1,1.5,1.8,2.2
		c1.5,1.6,2,3.1,1.6,4.7c-0.2,0.3-0.1,0.9-0.6,1c-0.2,0.1-0.4-0.1-0.4-0.3c-0.1-1-0.1-2-0.7-2.8c-0.7-0.7-1.3-1.9-2.4-1.9l0,0l0,0
		c-0.8,0.2-1.3,1-1.7,1.7c0,0-0.1,0.1-0.2,0C218.1,173.8,218.6,173.2,218.8,172.6C218.9,172.3,218.6,173.2,218.8,172.6z
		 M262.2,174.2c-0.2-0.4-0.5-0.7-0.9-0.7c-0.7,0-1.1,0.6-1.7,0.9c-0.9,0.8-2.2,1.7-2.5,3c-0.2,0.4-0.1,1.1-0.5,1.4
		c-0.2,0.1-0.5-0.1-0.5-0.3c-0.2-1.7,0.4-3.3,1.6-4.4c1.2-1,2-2.3,3-3.5c0.5-0.1,0.9,0.3,1.1,0.7c0.6,0.8,1.1,1.6,1.5,2.7
		c0.1,0.2,0,0.4-0.1,0.6c-0.1,0.2-0.3,0.4-0.6,0.2l0,0C262.5,174.8,262.3,174.5,262.2,174.2z M262.7,187c-0.5,0.3-1.2,0.1-1.7,0.1
		c-0.6-0.4-0.8-1.1-0.9-1.8c0-0.2,0-0.3,0.2-0.5c0.9,0,1.6,0.3,2,0.8C262.5,185.9,262.8,186.5,262.7,187
		C262.5,187.1,262.8,186.6,262.7,187z"/>
	<rect x="337" y="219.6" fill="#313131" width="11.4" height="59.5"/>
	<rect x="356.2" y="219.6" fill="#313131" width="11.4" height="59.5"/>
	<path fill="#313131" d="M319.8,244.4L319.8,244.4l-0.1,20.3c0,3.4-2.9,6.1-6.4,6.1s-6.4-2.7-6.4-6.1l0.1-20.3l0,0h-11.4v22.5
		c0,7.6,7.9,13.8,17.7,13.8c9.7,0,17.6-6.2,17.6-13.8v-22.5H319.8z"/>
	<path fill="#313131" d="M146.4,249.5c2.4-3,3.7-6.6,3.7-10.4c0-9.2-7.6-16.7-17-16.7c-0.3,0-0.6,0-0.9,0h-19.8V279h12.1v-46.8h6.1
		c4.4,0,7.8,3.2,7.8,7.4c0,4.1-3.6,7.4-8,7.4h-2.8l0,0v13.6l12,18.5l0,0h14.2l-16.6-23.6C140.8,254.5,144.1,252.4,146.4,249.5z"/>
	<path fill="#313131" d="M171.1,242.4c-5,0-9.7,2-13.2,5.5c-3.5,3.6-5.5,8.3-5.5,13.4c0,10.4,8.4,18.9,18.7,18.9
		c7.6,0,13.9-3.3,17.2-9.2l0,0l-9.2-4.2l0,0l0,0c-1.2,2.6-4,4.3-7,4.3c-4.2,0-7.6-3.1-7.6-7c0-0.1,0-0.2-0.1-0.2v-0.1h24.9l0,0l0,0
		c0.1-0.8,0.1-1.6,0.1-2.4c0.1-5.7-1.6-10.5-5-13.8C181.1,244.2,176.4,242.4,171.1,242.4z M164.3,257.2c0-3.8,3.1-6.8,6.9-6.8
		c3.8,0,6.8,3.1,6.9,6.8H164.3z"/>
	<path fill="#313131" d="M234.1,219.7h-11.4v28c-3.1-3-7.1-4.7-11.3-4.7c-9.3,0-16.9,8.3-16.9,18.5s7.6,18.5,16.9,18.5
		c4.2,0,8.2-1.7,11.4-4.8v3.8h11.3V219.7L234.1,219.7z M214.8,270.2c-4.5,0-8.3-4.1-8.3-9c0-5,3.7-9,8.3-9c4.5,0,8.2,4,8.2,9
		S219.2,270.2,214.8,270.2z"/>
	<path fill="#313131" d="M282,248.2c3.2-3,4.9-6.9,4.9-11c0-3.8-1.4-7.3-4.1-10.2c-2.6-2.8-7.1-4.2-13.9-4.2l-19.3-0.1l0,0V279
		l24.9-0.1c4.6-0.1,9-1.8,12.2-4.8c3.3-3.1,5-7.1,5-11.4c0-3.5-0.7-6.1-2.1-8.4C288.2,251.9,285.5,249.9,282,248.2z M272.3,269.1
		h-10.8v-36.6h7.5c3.3,0,5.9,2.7,5.9,6s-2.7,6-5.9,6h-4v10.2h7.2c3.9,0,7,3.2,7,7.2C279.2,266.1,276.7,268.8,272.3,269.1z"/>
</g>
</svg>
