<?xml version="1.0" encoding="utf-8"?>
<!-- Generator: Adobe Illustrator 17.0.2, SVG Export Plug-In . SVG Version: 6.00 Build 0)  -->
<!DOCTYPE svg PUBLIC "-//W3C//DTD SVG 1.1 Tiny//EN" "http://www.w3.org/Graphics/SVG/1.1/DTD/svg11-tiny.dtd">
<svg version="1.1" baseProfile="tiny" id="Layer_1" xmlns="http://www.w3.org/2000/svg" xmlns:xlink="http://www.w3.org/1999/xlink"
	 x="0px" y="0px" width="512px" height="512px" viewBox="0 0 512 512" xml:space="preserve">
<g>
	<path fill="#313131" d="M267.56,212.039c0.126,0.354,0.281,0.961,0.324,0.961h0.11c0.106,0,0.556-0.453,0.837-0.807
		c0.309-0.336,0.59-0.884,0.242-1.431c-0.326-0.554-1.232-0.656-2.044-0.955c-0.902-0.336-1.323-0.585-1.323-0.585
		c-0.132,0.265,0.09,0.409,0.421,0.737C266.437,210.29,267.332,211.491,267.56,212.039z"/>
</g>
<g>
	<path fill="#313131" d="M331.252,181H180.844c2.204,24,3.365,49.483,3.365,73.216c0,34.049-2.329,63.784-3.552,76.784H331.34
		c-1.23-13-3.524-42.721-3.524-76.716C327.816,225.562,329.596,199,331.252,181z M267.603,196.093c0,1.464,0.171,3.088,0.332,4.167
		c8.949-1.598,17.223-2.526,17.223-2.526c0.065,0,0.104,0.242,0.043,0.261c-0.043,0.022-15.862,5.82-16.499,6.029
		c0.991,4.831,4.881,14.852,7.744,18.506c0,0,0.658,0.877,0.857,1.148c0.177,0.277,0.79,0.566-0.552,3.119
		c-1.227,2.31-1.382,1.327-2.113,0.69c-1.38-1.221-4.664-2.166-5.631-1.022c-0.769,0.922,0.088,2.111,0.464,2.842
		c0.104,0.232,0.149,0.613,0.065,0.713c-0.354,0.403-1.063,0.769-1.977,0.702c-1.232-0.09-1.478-0.399-1.781-2.294
		c-0.147-0.908-0.519-1.962-1.128-2.604c-0.845-0.888-1.454-0.829-3.035-2.156c-2.685-2.221-4.067-4.643-3.477-7.959
		c0.238-1.437-0.352-0.242-0.529,0.31c-0.57,1.692-0.857,5.329,1.979,9.103c3.084,4.096,10.363,11.391,11.133,19.385
		c0.006,0.069-0.234,0.122-0.261,0.055c-3.569-8.782-14.058-13.736-22.272-15.135c-0.049-12.594,3.4-22.972,15.369-26.815
		c0.334-0.108,0.25-0.888-0.159-0.802c-13.474,2.805-19.389,13.865-19.98,27.045c-2.337-0.159-4.859,0.01-6.117,0.263
		C237.235,219.136,241.392,197.723,267.603,196.093z M282.779,262c-0.761,3-1.274,4.616-3.839,4.659
		c-2.194,0.037-8.134,0.114-9.918,0.034c-0.075,0.434-1.445,7.872-1.445,7.872s-0.263,0.936,0.963,0.999
		c2.237,0.116,7.322,0.033,8.977-0.141c1.899-0.197,3.286-0.521,5.154-2.07c0.366,0.165,0.48,0.222,0.48,0.222
		s-1.358,3.612-1.846,4.53c-0.898,1.767-1.525,2.28-3.79,2.217c-7.318-0.214-18.29-0.136-18.29-0.136
		c2.078-9.596,3.823-19.021,4.356-23.033c0.14-1.056-0.423-1.396-1.101-1.486c-0.651-0.085-2.555-0.138-3.495,0.096
		c-0.02-2.811,1.344-4.285,3.461-4.546c3.626-0.444,21.592-0.153,21.592-0.153c-0.576,2.327-1.217,4.782-3.237,4.782
		c0,0-9.46-0.164-9.702-0.164c-0.153,0.776-1.246,6.317-1.297,6.317C270.131,262,282.779,262,282.779,262z M202.762,278.621
		c0.602-2.021,4.694-17.405,7.135-28.818c0.281-1.313,0.029-2.251-0.953-2.412c-0.981-0.163-3.438-0.094-4.271,0.11
		c0-2.846,1.714-4.664,4.002-5.061c3.277-0.568,8.12-0.918,14.372-1.05c4.947-0.12,10.677,0.006,13.637,0.472
		c2.005,0.315,2.555,1.268,2.722,2.121c0.171,0.873,0.1,3.131-0.411,4.458c-1.527-1.227-4.285-1.559-8.403-1.692
		c-3.41-0.122-8.24,0.293-11.569,0.509c-0.698,2.205-3.22,10.742-3.941,14.742h12.383c-0.957,2-2.115,4.747-4.617,4.792
		c-0.973,0.018-6.127-0.044-8.94-0.227c-1.075,4.436-2.382,10.987-2.699,15.671c-0.079,1.177-0.067,3.755-0.067,3.755l-0.487,0.582
		c-3.491-0.79-6.455-1.924-7.412-2.936C202.286,282.628,202.064,280.964,202.762,278.621z M239.42,256.655
		c-1.449,6.406-3.66,17.596-4.295,24.719c-0.195,2.199-0.11,4.202,0.2,6.123l-0.438,0.598c-1.476-0.281-5.356-1.232-6.937-2.498
		c-1.24-0.993-1.164-2.555-0.678-5.242c0.763-4.234,4.32-20.434,4.531-22.117c0.147-1.164-0.122-1.639-0.79-1.806
		c-0.668-0.167-2.817-0.199-3.809,0.025c-0.1-2.447,1.405-4.283,3.3-4.476c3.345-0.332,9.661-0.228,11.507-0.206
		c7.108,0.09,11.198,1.419,12.843,6.087c1.6,4.535-1.704,10.612-8.354,12.224c3.522,4.902,6.286,8.24,8.605,10.669
		c2.781,2.909,6.431,4.155,9.289,4.079l0.303,0.43c-2.201,1.911-5.677,3.289-8.21,3.554c-1.889,0.206-2.917,0-4.134-0.877
		c-2.878-2.082-11.717-14.04-14.762-19.45c5.291,0.22,8.867-2.797,9.771-6.663C248.503,256.962,244.845,256.154,239.42,256.655z
		 M258.001,315.269l-0.332,3.913l-2.88-2.64l-3.809,0.883l1.604-3.558l-2.025-3.347l3.898,0.432l2.549-2.952l0.796,3.819
		l3.609,1.517L258.001,315.269z M265.834,297.707c-1.27-0.747-2.878-3.324-4.063-5.899l0.332-0.33
		c4.147,0.918,9.372,0.358,12.995-0.592c7.943-2.084,13.763-6.142,18.742-11.876c1.232-6.968,0.733-26.017-9.606-30.984
		l-0.022-0.436c1.914-0.541,4.401-1.128,6.18-1.293c2.178-0.212,3.658,0.199,5.437,2.388c3.546,4.389,5.272,13.118,4.851,21.226
		c3.255-4.607,7.86-15.383,4.886-26.848c1.572-0.21,3.996-0.358,5.447-0.204c2.783,0.295,3.538,2.294,3.304,6.221
		c-0.542,9.04-5.181,19.161-9.046,25.348c-9.871,15.796-24.59,23.164-34.5,23.77C268.692,298.326,266.962,298.363,265.834,297.707z"
		/>
</g>
</svg>
