<?xml version="1.0" encoding="utf-8"?>
<!-- Generator: Adobe Illustrator 17.0.2, SVG Export Plug-In . SVG Version: 6.00 Build 0)  -->
<!DOCTYPE svg PUBLIC "-//W3C//DTD SVG 1.1 Tiny//EN" "http://www.w3.org/Graphics/SVG/1.1/DTD/svg11-tiny.dtd">
<svg version="1.1" baseProfile="tiny" id="Layer_1" xmlns="http://www.w3.org/2000/svg" xmlns:xlink="http://www.w3.org/1999/xlink"
	 x="0px" y="0px" width="512px" height="512px" viewBox="0 0 512 512" xml:space="preserve">
<g>
	<path fill="#313131" d="M128,208v91.772h256V208H128z M255.998,295.633c-69.551,0-125.931-18.846-125.931-42.091
		c0-23.246,56.38-42.091,125.931-42.091c69.549,0,125.928,18.844,125.928,42.091C381.926,276.788,325.547,295.633,255.998,295.633z"
		/>
	<path fill="#313131" d="M185.567,266.604v-28.618c0-1.519,0.993-2.13,0.993-2.13h-23.341c0,0,0.993,0.609,0.993,2.13v28.616
		c0,0.289,0.086,2.467-1.206,3.106l23.765,0.001C185.478,269.07,185.567,266.893,185.567,266.604z"/>
	<path fill="#313131" d="M354.971,267.093l-11.388-28.333c-0.609-1.824,0.535-2.883,0.535-2.883h-32.304
		c0,0,1.201,1.043,0.472,2.837l-10.766,28.379c-0.73,1.642-1.869,2.616-1.869,2.616h20.295c0,0-1.035-1.155-0.67-2.554l1.644-4.138
		h10.043l1.641,4.138c0.365,1.399-0.669,2.554-0.669,2.554h25.185C357.118,269.709,355.886,268.918,354.971,267.093z
		 M322.887,256.874c0,0,2.421-5.971,2.513-6.2c0.304-0.715,0.344-1.739,0.344-1.739h0.036c0,0,0.04,1.025,0.347,1.739
		c0.087,0.229,2.508,6.2,2.508,6.2H322.887z"/>
	<path fill="#313131" d="M277.775,259.314l-0.003-2.7h11.012c0.613,0,2.5,0.213,2.97,0.836l0.016-10.326
		c-0.496,0.692-2.373,0.849-2.986,0.849h-11.014v-2.7h14.351c2.112,0,3.557,1.519,3.557,1.519v-10.935h-38.932
		c0,0,0.995,0.609,0.995,2.128v28.618c0,0.29,0.086,2.467-1.208,3.107l39.15-0.001v-11.905c0,0-1.449,1.511-3.562,1.511H277.775z"/>
	<path fill="#313131" d="M248.949,266.879l-10.775-17.227l8.547-11.818c1.019-1.321,2.102-1.917,2.102-1.977
		c0-0.006-22.985,0-22.985,0s1.279,0.9,0.153,2.538l-7.842,10.935l-0.009-11.345c0-1.519,1.002-2.128,1.002-2.128h-22.709
		c0,0,0.992,0.607,0.992,2.128v28.616c0,0.29,0.089,2.468-1.205,3.106l22.922,0.001c-1.292-0.637-1.002-2.817-1.002-3.106v-10.764
		l7.132,11.77c0.667,1.642-0.096,2.098-0.096,2.098h26.845c0,0-0.277-0.176-0.677-0.483
		C250.685,268.724,249.884,268.132,248.949,266.879z"/>
</g>
</svg>
