<?xml version="1.0" encoding="utf-8"?>
<!-- Generator: Adobe Illustrator 17.0.2, SVG Export Plug-In . SVG Version: 6.00 Build 0)  -->
<!DOCTYPE svg PUBLIC "-//W3C//DTD SVG 1.1 Tiny//EN" "http://www.w3.org/Graphics/SVG/1.1/DTD/svg11-tiny.dtd">
<svg version="1.1" baseProfile="tiny" id="Layer_1" xmlns="http://www.w3.org/2000/svg" xmlns:xlink="http://www.w3.org/1999/xlink"
	 x="0px" y="0px" width="512px" height="512px" viewBox="0 0 512 512" xml:space="preserve">
<g id="layer1_1_" transform="translate(-280.86175,-405.81998)">
	<g id="g3160" transform="matrix(7.088209,0,0,7.088209,-2408.0012,-4440.1834)">
		<path id="path2715" fill="#313131" d="M410.235,721.802h0.717V715.9h-0.717v-0.159h2.775c0.975,0,2.545,0.159,2.545,1.458
			c0,1.069-1.182,1.423-2.076,1.484v0.018c1.299,0.115,1.936,0.619,1.954,1.564c0.014,1.387,0.14,1.519,0.492,1.519
			c0.09,0,0.221-0.053,0.32-0.115l0.059,0.133c-0.307,0.23-0.74,0.3-1.074,0.3c-0.948,0-1.178-0.671-1.178-1.643
			c0-1.422-0.343-1.634-1.254-1.652h-0.469v2.995h0.744v0.159h-2.838V721.802z M412.329,718.648h0.496
			c1.015-0.053,1.272-0.442,1.245-1.546c0-1.096-0.343-1.202-1.096-1.202h-0.645V718.648"/>
		<path id="path2717" fill="#313131" d="M416.367,721.802h0.609v-3.569h-0.609v-0.159h0.627c0.361,0,1.015,0,1.2-0.23v3.958h0.614
			v0.159h-2.441V721.802z M417.585,715.777c0.397,0,0.717,0.318,0.717,0.716c0,0.398-0.32,0.716-0.717,0.716
			c-0.397,0-0.713-0.318-0.713-0.716C416.872,716.095,417.188,715.777,417.585,715.777"/>
		<path id="path2719" fill="#313131" d="M418.894,721.802h0.609v-3.569h-0.609v-0.159h0.627c0.361,0,1.015,0,1.2-0.23v0.945h0.018
			c0.239-0.513,0.821-0.822,1.417-0.822c0.839,0,1.245,0.415,1.245,1.369v2.465h0.609v0.159h-2.333v-0.159h0.505v-2.792
			c0-0.618-0.266-0.724-0.523-0.724c-0.496,0-0.939,0.645-0.939,1.095v2.421h0.523v0.159h-2.351V721.802"/>
		<path id="path2721" fill="#313131" d="M426.339,721.166c0.866-0.018,1.29,0.371,1.29,1.228c0,1.078-0.803,1.908-2.03,1.908
			c-0.979,0-1.751-0.504-1.751-1.157c0-0.424,0.406-0.777,0.763-0.875v-0.018c-0.374-0.106-0.578-0.442-0.578-0.883
			c0-0.733,0.541-0.972,0.884-1.016v-0.018c-0.469-0.212-0.731-0.592-0.731-1.078c0-0.804,0.794-1.29,1.534-1.29
			c0.496,0,0.848,0.132,1.105,0.318c0.167-0.195,0.388-0.389,0.681-0.389c0.266,0,0.6,0.159,0.6,0.468
			c0,0.238-0.158,0.45-0.442,0.45c-0.266,0-0.406-0.203-0.406-0.406c0-0.177,0.054-0.291,0.239-0.389v-0.018
			c-0.343,0.044-0.424,0.239-0.582,0.398c0.244,0.212,0.379,0.61,0.379,0.892c0,0.839-0.812,1.272-1.575,1.272
			c-0.14,0-0.253-0.018-0.361-0.053c-0.095-0.027-0.194-0.053-0.289-0.053c-0.338,0-0.717,0.239-0.717,0.46
			c0,0.238,0.298,0.247,0.519,0.247H426.339z M424.75,722.279c-0.239,0.256-0.37,0.513-0.37,0.901
			c0.018,0.424,0.451,0.963,1.245,0.963c0.893,0,1.688-0.601,1.688-1.245c0-0.539-0.293-0.619-1.178-0.619H424.75z M426.289,719.257
			c-0.009-1.016-0.144-1.131-0.559-1.131c-0.46,0-0.537,0.389-0.537,1.105c0,1.06,0.185,1.175,0.537,1.175
			C426.05,720.406,426.28,720.344,426.289,719.257"/>
		<path id="path2723" fill="#313131" d="M428.161,721.802h0.609v-3.569h-0.609v-0.159h0.627c0.361,0,1.015,0,1.2-0.23v3.958h0.609
			v0.159h-2.436V721.802z M429.38,715.777c0.397,0,0.717,0.318,0.717,0.716c0,0.398-0.32,0.716-0.717,0.716
			c-0.397,0-0.717-0.318-0.717-0.716C428.662,716.095,428.983,715.777,429.38,715.777"/>
		<path id="path2725" fill="#313131" d="M431.87,719.823v0.742c0,0.601,0.09,1.29,0.911,1.29c0.69,0,1.2-0.513,1.394-1.334h0.158
			c-0.194,0.875-0.731,1.546-1.818,1.546c-1.128,0-1.972-0.857-1.972-2.006c0-1.193,0.902-2.094,1.945-2.094
			c0.929-0.018,1.814,0.901,1.823,1.855H431.87z M432.985,719.664v-0.76c0-0.486-0.131-0.777-0.555-0.777
			c-0.302,0-0.559,0.185-0.559,0.777v0.76H432.985"/>
		<path id="path2727" fill="#313131" d="M434.266,721.802h0.609v-3.569h-0.609v-0.159h0.609c0.361,0,1.015,0,1.2-0.23v0.901h0.018
			c0.167-0.442,0.6-0.831,1.169-0.831c0.415,0,0.695,0.256,0.695,0.68c0,0.336-0.248,0.645-0.672,0.645c-0.343,0-0.6-0.23-0.6-0.574
			c0-0.221,0.063-0.362,0.212-0.521h-0.036c-0.555,0.248-0.767,0.725-0.767,1.405v2.253h0.812v0.159h-2.639V721.802"/>
		<path id="path2737" fill="#313131" d="M392.887,718.115c0-1.491,1.209-2.699,2.698-2.699c1.489,0,2.698,1.208,2.698,2.699
			c0,1.49-1.209,2.699-2.698,2.699C394.096,720.813,392.887,719.605,392.887,718.115z M395.585,719.518
			c0.776,0,1.403-0.628,1.403-1.403c0-0.775-0.627-1.403-1.403-1.403s-1.403,0.628-1.403,1.403
			C394.182,718.889,394.809,719.518,395.585,719.518z"/>
		<path id="path2747" fill="#313131" d="M398.445,718.115c0-1.491,1.209-2.699,2.698-2.699s2.698,1.208,2.698,2.699
			c0,1.49-1.209,2.699-2.698,2.699S398.445,719.605,398.445,718.115z M401.144,719.518c0.776,0,1.403-0.628,1.403-1.403
			c0-0.775-0.627-1.403-1.403-1.403s-1.403,0.628-1.403,1.403C399.74,718.889,400.368,719.518,401.144,719.518z"/>
		<path id="path2757" fill="#313131" d="M403.986,718.115c0-1.491,1.209-2.699,2.698-2.699c1.493,0,2.698,1.208,2.698,2.699
			c0,1.49-1.205,2.699-2.698,2.699C405.195,720.813,403.986,719.605,403.986,718.115z M406.666,719.518
			c0.776,0,1.403-0.628,1.403-1.403c0-0.775-0.627-1.403-1.403-1.403s-1.403,0.628-1.403,1.403
			C405.263,718.889,405.89,719.518,406.666,719.518z"/>
	</g>
</g>
</svg>
