<?xml version="1.0" encoding="utf-8"?>
<!-- Generator: Adobe Illustrator 17.0.2, SVG Export Plug-In . SVG Version: 6.00 Build 0)  -->
<!DOCTYPE svg PUBLIC "-//W3C//DTD SVG 1.1 Tiny//EN" "http://www.w3.org/Graphics/SVG/1.1/DTD/svg11-tiny.dtd">
<svg version="1.1" baseProfile="tiny" id="Layer_1" xmlns="http://www.w3.org/2000/svg" xmlns:xlink="http://www.w3.org/1999/xlink"
	 x="0px" y="0px" width="512px" height="512px" viewBox="0 0 512 512" xml:space="preserve">
<g>
	<path fill="#313131" d="M184.871,252.32c0-4.084,3.009-5.215,5.339-5.215c2.377,0,4.754,0.592,6.89,1.613l0.63-6.18
		c-2.474-0.913-5.192-1.344-8.102-1.344c-5.971,0-11.84,3.064-11.84,11.447c0,12.415,14.847,9.461,14.847,16.609
		c0,3.385-3.445,4.836-6.016,4.836c-2.671,0-5.339-0.911-7.669-2.31l-0.63,6.773c3.348,0.913,4.998,1.451,8.687,1.451
		c6.84,0,12.711-3.116,12.711-11.34C199.718,256.083,184.871,258.824,184.871,252.32z"/>
	<polygon fill="#313131" points="232.862,272.152 232.765,272.152 227.331,251.675 219.76,251.675 214.715,272.152 214.617,272.152 
		209.084,251.675 202.195,251.675 210.638,279.355 218.062,279.355 223.399,258.231 223.498,258.231 228.932,279.355 
		236.598,279.355 244.267,251.675 238.054,251.675 	"/>
	<rect x="248.002" y="251.675" fill="#313131" width="6.503" height="27.68"/>
	<rect x="248.002" y="239.743" fill="#313131" width="6.501" height="6.88"/>
	<path fill="#313131" d="M266.249,259.361c0-2.365,2.086-3.064,3.833-3.064c2.377,0,3.833,0.431,5.822,1.182l0.438-5.429
		c-2.038-0.483-4.027-1.021-7.086-1.021c-5.095,0-9.802,2.633-9.802,8.599c0,9.998,11.307,6.29,11.307,11.716
		c0,2.688-2.621,3.387-4.271,3.387c-2.233,0-4.366-0.699-6.404-1.827l-0.388,5.911c2.377,0.699,4.901,1.182,7.375,1.182
		c5.289,0,10.481-2.579,10.481-9.03C277.554,260.974,266.249,263.767,266.249,259.361z"/>
	<path fill="#313131" d="M287.5,259.361c0-2.365,2.088-3.064,3.833-3.064c2.377,0,3.833,0.431,5.824,1.182l0.436-5.429
		c-2.038-0.483-4.027-1.021-7.084-1.021c-5.095,0-9.802,2.633-9.802,8.599c0,9.998,11.305,6.29,11.305,11.716
		c0,2.688-2.618,3.387-4.269,3.387c-2.233,0-4.368-0.699-6.407-1.827l-0.388,5.911c2.377,0.699,4.901,1.182,7.377,1.182
		c5.289,0,10.481-2.579,10.481-9.03C298.808,260.974,287.5,263.767,287.5,259.361z"/>
	<path fill="#313131" d="M315.502,274.41c-4.562,0-6.745-3.923-6.745-9.028c0-5.215,2.574-8.761,6.601-8.761
		c1.989,0,3.251,0.431,4.416,1.021l0.582-5.697c-1.797-0.59-3.689-0.913-6.31-0.913c-7.813,0-12.084,6.342-12.084,14.352
		c0,8.438,4.124,14.618,12.326,14.618c2.671,0,4.61-0.269,6.501-0.914l-0.289-5.966C319.385,273.658,317.346,274.41,315.502,274.41z
		"/>
	<path fill="#313131" d="M345.39,266.241v-3.547c0-8.169-3.154-11.663-10.77-11.663c-2.768,0-6.165,0.806-8.687,2.096l0.194,6.183
		c2.18-1.829,4.948-3.012,7.713-3.012c3.836,0,5.63,1.506,5.63,5.966h-3.592c-2.718,0-5.919,0.269-8.393,1.613
		c-2.476,1.344-4.271,3.763-4.271,7.9c0,5.269,4.318,8.224,8.734,8.224c2.959,0,6.21-1.72,7.716-4.784h0.097
		c0.047,0.861,0.047,2.688,0.291,4.139h5.725c-0.144-2.148-0.244-4.084-0.289-6.18C345.44,271.132,345.39,269.036,345.39,266.241z
		 M338.112,272.262c-1.018,1.503-2.574,2.472-4.562,2.472c-2.327,0-4.124-1.021-4.124-3.385c0-4.246,4.318-4.784,7.231-4.784h2.815
		C339.471,268.715,339.18,270.701,338.112,272.262z"/>
	<path fill="#313131" d="M365.966,251.03c-3.397,0-6.163,1.235-8.201,4.406h-0.097v-3.761h-6.163v27.68h6.501V265.81
		c0-3.547,1.021-9.192,5.727-9.192c4.172,0,4.221,4.57,4.221,7.955v14.782h6.504v-17.468
		C374.459,255.652,371.885,251.03,365.966,251.03z"/>
	<path fill="#313131" d="M392.556,274.41c-2.474,0-3.056-2.203-3.056-4.567v-12.901h5.777v-5.267H389.5v-7.848l-6.501,2.312v5.535
		h-4.804v5.267h4.804v14.083c0,5.481,2.815,8.975,7.91,8.975c1.939,0,3.445-0.214,4.801-0.645l-0.194-5.697
		C394.836,274.141,393.724,274.41,392.556,274.41z"/>
	<path fill="#313131" d="M410.898,251.03c-7.375,0-13.052,5.535-13.052,14.673c0,7.955,4.804,14.297,13.052,14.297
		c8.301,0,13.102-6.342,13.102-14.297C424,256.566,418.323,251.03,410.898,251.03z M410.898,274.41
		c-4.948,0-6.257-4.998-6.257-9.568c0-4.139,2.038-8.221,6.257-8.221c4.271,0,6.31,3.977,6.31,8.221
		C417.207,269.466,415.896,274.41,410.898,274.41z"/>
	<path fill="#313131" d="M88.177,279.686h64.624v-64.428H88.177V279.686z M90.877,217.959H150.1v59.027H90.877V217.959z"/>
	<polygon fill="#313131" points="117.049,220.928 100.656,247.471 116.984,273.984 146.707,273.984 130.362,247.491 
		146.777,220.923 	"/>
</g>
</svg>
