<?xml version="1.0" encoding="utf-8"?>
<!-- Generator: Adobe Illustrator 17.0.2, SVG Export Plug-In . SVG Version: 6.00 Build 0)  -->
<!DOCTYPE svg PUBLIC "-//W3C//DTD SVG 1.1 Tiny//EN" "http://www.w3.org/Graphics/SVG/1.1/DTD/svg11-tiny.dtd">
<svg version="1.1" baseProfile="tiny" id="Layer_1" xmlns="http://www.w3.org/2000/svg" xmlns:xlink="http://www.w3.org/1999/xlink"
	 x="0px" y="0px" width="512px" height="512px" viewBox="0 0 512 512" xml:space="preserve">
<g>
	<path fill-rule="evenodd" fill="#313131" d="M228.894,233.133V272h8.329v-21.516c1.727,1.265,12.57,20.769,14.575,21.516h6.594
		c1.428-0.26,2.106-1.436,2.082-3.47v-36.551h-8.676c0,4.59-0.416,17.12,0.347,20.935c-0.943-0.341-0.619,0.009-2.066-2.445
		l-5.72-8.855c-5.403-8.551-4.694-9.521-14.424-9.521C229.136,232.092,228.894,232.333,228.894,233.133L228.894,233.133z"/>
	<path fill-rule="evenodd" fill="#313131" d="M383.147,271.886h8.263l-0.281-21.516c1.99,1.333,9.187,15.232,14.922,21.516h6.159
		c1.585-0.209,2.162-0.929,2.192-3.1c0.065-4.668-0.741-31.873-0.068-33.461c0.388-1.287,1.174-1.427,1.58-1.544l0.085-1.804h-9.949
		V252.8c-0.958-0.702-11.053-16.919-11.301-17.155c-1.392-2.159-3.33-3.501-6.05-3.666h-5.552V271.886L383.147,271.886z"/>
	<path fill-rule="evenodd" fill="#313131" d="M306.281,233.133v36.785c0,1.276,1.31,1.848,3.098,2.082h8.006v-16.657
		c1.446,0.386,0.588,0.183,2.219,2.639l6.107,9.509c2.304,3.278,3.684,4.257,6.436,4.509h7.577c0.614-0.004,1.263-0.005,1.952,0
		c-0.289-1.241-14.189-22.429-14.922-23.598c0.527-0.353,2.986-3.184,3.47-3.817c1.162-1.522,2.473-2.414,3.671-3.964
		c0.772-0.999,1.035-1.162,1.778-2.04l4.962-6.49c-11.732,0-9.473-1.525-18.495,9.267c-1.168,1.397-3.295,3.552-4.756,4.614v-13.881
		h-10.064C306.523,232.092,306.281,232.333,306.281,233.133L306.281,233.133z"/>
	<path fill-rule="evenodd" fill="#313131" d="M171.288,268.53c-0.127,2.554,1.125,3.391,3.817,3.47h20.128
		c1.347-0.02,2.14-0.854,2.429-2.429v-4.858h-13.187c-1.192,0.074-1.936-0.336-2.082-1.388v-8.329h12.146v-7.635h-12.146v-7.635
		h15.269c0-4.08,0.878-6.876-2.082-7.635h-24.292V268.53L171.288,268.53z"/>
	<path fill-rule="evenodd" fill="#313131" d="M207.379,270.265c0,1.122,1.26,1.735,2.429,1.735h8.329v-39.908h-10.758V270.265
		L207.379,270.265z"/>
	<path fill-rule="evenodd" fill="#313131" d="M271.218,268.53c-0.127,2.554,1.125,3.391,3.817,3.47h20.128
		c1.347-0.02,2.14-0.854,2.429-2.429v-4.858h-13.187c-1.192,0.074-1.936-0.336-2.082-1.388v-8.329h12.146v-7.635h-12.146v-7.635
		h15.269c0-4.08,0.878-6.876-2.082-7.635h-24.292V268.53L271.218,268.53z"/>
	<path fill-rule="evenodd" fill="#313131" d="M347.09,268.53c-0.127,2.554,1.125,3.391,3.817,3.47h20.128
		c1.347-0.02,2.14-0.854,2.429-2.429v-4.858h-13.187c-1.192,0.074-1.936-0.336-2.082-1.388v-8.329h12.146v-7.635h-12.146v-7.635
		h15.269c0-4.08,0.878-6.876-2.082-7.635H347.09V268.53L347.09,268.53z"/>
	<path fill-rule="evenodd" fill="#313131" d="M129.428,235.796l-0.153,35.612h10.849v-17.238l9.408-0.018l-0.038,17.256h10.758
		v-39.429h-10.758v14.228c0.056,0.664-0.286,1.084-1.041,1.041h-7.288c-0.698,0.016-1.037-0.341-1.041-1.041v-14.228h-12.493
		C127.465,234.628,129.503,233.463,129.428,235.796L129.428,235.796z"/>
	<path fill-rule="evenodd" fill="#313131" d="M112.605,224.701l7.624,5.677l-2.994,10.371c-2.963,2.101-5.985,4.205-8.874,6.308
		c-1.109,0.353-1.1-0.573-0.535-2.138l5.025-15.93c-5.025-3.742-10.05-7.484-15.075-11.226c-0.505-0.421-0.443-1.056,0.962-1.069
		l18.282,0.214c1.853-5.666,3.706-11.333,5.559-16.999c0.379-1.071,1.082-0.906,1.39-0.107l5.559,17.32h18.772
		c0.527-0.005,0.637,0.4,0.242,0.708l-9.177,6.562h-10.371l-2.852-8.795c-0.192-0.505-0.516-0.494-0.687,0.013l-2.983,8.676
		l-9.777,0.049C112.243,224.323,112.253,224.495,112.605,224.701L112.605,224.701z"/>
</g>
</svg>
