<?xml version="1.0" encoding="utf-8"?>
<!-- Generator: Adobe Illustrator 17.0.2, SVG Export Plug-In . SVG Version: 6.00 Build 0)  -->
<!DOCTYPE svg PUBLIC "-//W3C//DTD SVG 1.1 Tiny//EN" "http://www.w3.org/Graphics/SVG/1.1/DTD/svg11-tiny.dtd">
<svg version="1.1" baseProfile="tiny" id="Layer_1" xmlns="http://www.w3.org/2000/svg" xmlns:xlink="http://www.w3.org/1999/xlink"
	 x="0px" y="0px" width="512px" height="512px" viewBox="0 0 512 512" xml:space="preserve">
<g>
	<path fill-rule="evenodd" fill="#303030" d="M169.003,211.987h-12.873c-0.711,0-0.711,1.939,0.002,1.939
		c3.144,0,4.523,1.364,4.523,5.326v18.69c0,5.474-3.27,10.984-10.149,10.984c-6.889,0-10.149-5.51-10.149-10.984v-18.69
		c0-3.963,1.379-5.326,4.523-5.326c0.713,0,0.713-1.939,0.002-1.939h-16.874c-0.711,0-0.711,1.939,0.002,1.939
		c3.144,0,4.523,1.364,4.523,5.326v18.69c0,7.725,4.523,14.895,16.085,14.895c11.195,0,15.861-7.17,15.861-14.895v-18.69
		c0-3.963,1.379-5.326,4.523-5.326C169.714,213.926,169.714,211.987,169.003,211.987z M206.344,242.842
		c-1.425,1.926-4.467,6.775-12.527,6.775c-7.478,0-13.63-6.2-13.63-17.772c0-12.07,6.03-18.041,13.519-18.041
		c8.836,0,10.797,7.789,11.143,9.559c0.14,0.717,2.135,0.593,2.07-0.113l-0.871-9.406c0,0-4.376-2.957-13.352-2.957
		c-9.841,0-20.872,5.746-20.872,21.094c0,15.71,11.702,20.984,20.872,20.984c8.141,0,13.276-4.095,14.145-4.839
		C207.177,246.751,207.085,241.84,206.344,242.842z M229.68,249.926c-3.144,0-4.523-1.364-4.523-5.327v-11.608
		c0-0.379,0.207-0.586,0.592-0.586l16.131-0.001c0.359,0,0.591,0.18,0.591,0.512V244.6c0,3.962-1.378,5.327-4.523,5.327
		c-0.713,0-0.713,1.94-0.002,1.94h16.762c0.712,0,0.711-1.94-0.002-1.94c-3.144,0-4.523-1.364-4.523-5.327v-25.347
		c0-3.962,1.379-5.326,4.523-5.326c0.713,0,0.713-1.939,0.002-1.939h-16.762c-0.711,0-0.711,1.939,0.002,1.939
		c3.145,0,4.523,1.328,4.523,5.326v9.563c0,0.332-0.231,0.508-0.59,0.508l-16.132-0.002c-0.385,0-0.593-0.201-0.593-0.58v-9.488
		c0-3.996,1.378-5.326,4.523-5.326c0.713,0,0.713-1.939,0.002-1.939H212.92c-0.711,0-0.711,1.939,0.002,1.939
		c3.144,0,4.523,1.364,4.523,5.326V244.6c0,3.963-1.379,5.327-4.523,5.327c-0.713,0-0.713,1.94-0.002,1.94h16.762
		C230.394,251.866,230.393,249.926,229.68,249.926z M294.721,241.917c-0.923,4.492-3.574,7.01-10.214,7.01
		c-5.237,0-8.14-0.519-8.14-4.219v-11.194c0-0.446,0.245-0.687,0.698-0.687h4.266c4.378,0,6.124,1.698,6.124,4.812
		c0,0.706,2.069,0.704,2.069,0v-12.43c0-0.704-2.069-0.704-2.069,0.002c0,3.114-1.746,4.812-6.124,4.812h-4.266
		c-0.454,0-0.698-0.241-0.698-0.687v-13.559c0-0.519,0.286-0.765,0.809-0.798c0.886-0.056,2.287-0.056,4.658-0.056
		c8.387,0,9.978,1.896,11.177,7.011c0.167,0.711,2.137,0.592,2.073-0.109l-0.901-9.84h-30.055c-0.711,0-0.711,1.939,0.002,1.939
		c3.144,0,4.523,1.364,4.523,5.326V244.6c0,3.963-1.379,5.327-4.523,5.327c-0.713,0-0.713,1.94-0.002,1.94h31.653l1.012-9.84
		C296.865,241.326,294.867,241.201,294.721,241.917z M113.666,230.648c4.121-1.248,7.918-4.132,7.918-8.977
		c0-7.048-5.5-9.681-12.512-9.682l-20.539-0.002c-0.711,0-0.711,1.939,0.002,1.939c3.144,0,4.522,1.364,4.522,5.326V244.6
		c0,3.963-1.378,5.327-4.522,5.327c-0.714,0-0.713,1.94-0.002,1.94l21.321,0.003c7.372,0.001,13.631-3.781,13.631-10.847
		C123.486,234.609,118.652,231.531,113.666,230.648z M100.772,215.671c0-0.922,1.505-1.132,3.176-1.132
		c5.249,0,9.691,1.913,9.691,7.464c0,5.874-4.176,7.907-9.461,7.907c-2.494,0-3.406-0.323-3.406-1.36V215.671z M105.738,249.316
		c-3.557,0-4.966-0.7-4.966-3.767v-11.682c0-1.036,0.572-1.361,3.854-1.361c5.285,0,10.692,2.642,10.692,8.516
		C115.317,246.958,111.017,249.316,105.738,249.316z M342.664,249.926c-3.324-0.233-5.7-2.636-7.549-5.948l-6.329-11.332
		c4.29-1.36,8.379-4.57,8.379-9.857c0-7.066-5.763-10.798-13.071-10.801l-19.597-0.002c-0.711-0.001-0.711,1.939,0.002,1.939
		c3.145,0,4.523,1.364,4.523,5.326V244.6c0,3.963-1.378,5.327-4.523,5.327c-0.713,0-0.713,1.94-0.002,1.94h16.762
		c0.711,0,0.71-1.94-0.002-1.94c-3.144,0-4.523-1.365-4.523-5.327v-10.276c0-0.379,0.207-0.583,0.593-0.583h1.152
		c1.907,0,2.628,0.68,3.417,2.215c1.932,3.761,2.944,5.699,5.075,9.345c2.626,4.493,5.622,6.91,12.211,6.91
		c1.48,0,2.95-0.126,3.596-0.345C343.451,251.639,343.376,249.976,342.664,249.926z M319.917,230.94
		c-2.495,0-3.183-0.323-3.183-1.36v-13.798c0-0.921,1.057-1.131,2.729-1.131c5.159,0,9.758,2.468,9.758,8.139
		C329.221,228.664,325.201,230.94,319.917,230.94z M377.462,241.917c-0.922,4.492-3.573,7.01-10.213,7.01
		c-5.236,0-8.14-0.519-8.14-4.219v-11.194c0-0.446,0.243-0.687,0.697-0.687h4.266c4.378,0,6.124,1.698,6.124,4.812
		c0,0.706,2.07,0.704,2.07,0v-12.43c0-0.704-2.07-0.704-2.07,0.002c0,3.114-1.746,4.812-6.124,4.812h-4.266
		c-0.454,0-0.697-0.241-0.697-0.687v-13.559c0-0.519,0.284-0.765,0.808-0.798c0.887-0.056,2.287-0.056,4.658-0.056
		c8.387,0,9.978,1.896,11.178,7.011c0.167,0.711,2.137,0.592,2.073-0.109l-0.9-9.84h-30.056c-0.711,0-0.711,1.939,0.002,1.939
		c3.145,0,4.523,1.364,4.523,5.326V244.6c0,3.963-1.378,5.327-4.523,5.327c-0.713,0-0.712,1.94-0.002,1.94h31.653l1.013-9.84
		C379.606,241.326,377.609,241.201,377.462,241.917z M425.406,249.926c-3.325-0.233-5.701-2.636-7.55-5.948l-6.329-11.332
		c4.289-1.36,8.38-4.57,8.38-9.857c0-7.066-5.764-10.798-13.072-10.801l-19.597-0.002c-0.711-0.001-0.711,1.939,0.002,1.939
		c3.144,0,4.523,1.364,4.523,5.326V244.6c0,3.963-1.379,5.327-4.523,5.327c-0.713,0-0.713,1.94-0.002,1.94H404
		c0.711,0,0.711-1.94-0.002-1.94c-3.144,0-4.523-1.365-4.523-5.327v-10.276c0-0.379,0.207-0.583,0.593-0.583h1.153
		c1.906,0,2.628,0.68,3.417,2.215c1.931,3.761,2.943,5.699,5.075,9.345c2.625,4.493,5.622,6.91,12.211,6.91
		c1.48,0,2.95-0.126,3.596-0.345C426.193,251.639,426.117,249.976,425.406,249.926z M402.658,230.94
		c-2.495,0-3.183-0.323-3.183-1.36v-13.798c0-0.921,1.058-1.131,2.729-1.131c5.16,0,9.758,2.468,9.758,8.139
		C411.962,228.664,407.943,230.94,402.658,230.94z M233.671,290.761c-1.895,0-2.467-0.63-2.467-2.458v-17.288
		c0-0.54-0.34-0.487-0.638-0.326c-1.579,0.854-3.675,1.77-5.354,2.431c-0.305,0.12-0.244,1.039,0.112,0.905l1.655-0.622
		c0.866-0.326,1.174,0.132,1.174,1.366v13.533c0,1.828-0.572,2.458-2.467,2.458c-0.329,0-0.329,0.895-0.001,0.895h7.986
		C234,291.656,234,290.761,233.671,290.761z M245.601,279.791c1.98-0.573,3.926-2.06,3.926-4.507c0-3.59-3.354-4.822-5.76-4.822
		c-2.778,0-6.064,1.746-6.064,5.737c0,2.853,1.774,4.243,4.073,5.162c-2.283,0.474-4.717,2.294-4.717,5.25
		c0,3.891,3.35,5.389,6.234,5.389c3.227,0,6.921-1.912,6.921-6.305C250.215,282.263,247.877,280.784,245.601,279.791z
		 M240.244,274.925c0-2.181,1.39-3.69,3.184-3.69c1.954,0,3.625,1.644,3.625,4.059c0,1.544-0.508,2.92-1.592,3.726
		c-0.135,0.1-0.441,0.3-0.61,0.3c-0.407,0-1.491-0.47-1.897-0.671C241.566,277.978,240.244,277.037,240.244,274.925z
		 M243.53,291.197c-2.372,0-3.727-2.047-3.727-4.765c0-1.711,0.649-3.216,1.832-4.126c0.276-0.212,0.676-0.446,0.912-0.446
		c0.306,0,1.328,0.454,1.694,0.636c1.626,0.806,3.049,1.855,3.049,4.339C247.291,289.486,245.692,291.197,243.53,291.197z
		 M262.146,279.791c1.98-0.573,3.926-2.06,3.926-4.507c0-3.59-3.354-4.822-5.76-4.822c-2.778,0-6.064,1.746-6.064,5.737
		c0,2.853,1.774,4.243,4.073,5.162c-2.284,0.474-4.717,2.294-4.717,5.25c0,3.891,3.351,5.389,6.235,5.389
		c3.227,0,6.921-1.912,6.921-6.305C266.759,282.263,264.421,280.784,262.146,279.791z M256.789,274.925
		c0-2.181,1.39-3.69,3.185-3.69c1.954,0,3.625,1.644,3.625,4.059c0,1.544-0.508,2.92-1.592,3.726c-0.135,0.1-0.441,0.3-0.61,0.3
		c-0.406,0-1.49-0.47-1.897-0.671C258.111,277.978,256.789,277.037,256.789,274.925z M260.075,291.197
		c-2.372,0-3.727-2.047-3.727-4.765c0-1.711,0.649-3.216,1.832-4.126c0.276-0.212,0.677-0.446,0.912-0.446
		c0.306,0,1.328,0.454,1.694,0.636c1.625,0.806,3.049,1.855,3.049,4.339C263.836,289.486,262.237,291.197,260.075,291.197z
		 M278.69,279.791c1.98-0.573,3.926-2.06,3.926-4.507c0-3.59-3.354-4.822-5.76-4.822c-2.777,0-6.064,1.746-6.064,5.737
		c0,2.853,1.774,4.243,4.073,5.162c-2.283,0.474-4.717,2.294-4.717,5.25c0,3.891,3.351,5.389,6.235,5.389
		c3.227,0,6.921-1.912,6.921-6.305C283.304,282.263,280.966,280.784,278.69,279.791z M273.333,274.925c0-2.181,1.39-3.69,3.185-3.69
		c1.953,0,3.625,1.644,3.625,4.059c0,1.544-0.508,2.92-1.592,3.726c-0.136,0.1-0.441,0.3-0.61,0.3c-0.407,0-1.49-0.47-1.898-0.671
		C274.655,277.978,273.333,277.037,273.333,274.925z M276.62,291.197c-2.372,0-3.727-2.047-3.727-4.765
		c0-1.711,0.649-3.216,1.831-4.126c0.277-0.212,0.677-0.446,0.913-0.446c0.305,0,1.327,0.454,1.694,0.636
		c1.626,0.806,3.049,1.855,3.049,4.339C280.38,289.486,278.782,291.197,276.62,291.197z"/>
</g>
</svg>
