<?xml version="1.0" encoding="utf-8"?>
<!-- Generator: Adobe Illustrator 17.0.2, SVG Export Plug-In . SVG Version: 6.00 Build 0)  -->
<!DOCTYPE svg PUBLIC "-//W3C//DTD SVG 1.1 Tiny//EN" "http://www.w3.org/Graphics/SVG/1.1/DTD/svg11-tiny.dtd">
<svg version="1.1" baseProfile="tiny" id="Layer_1" xmlns="http://www.w3.org/2000/svg" xmlns:xlink="http://www.w3.org/1999/xlink"
	 x="0px" y="0px" width="512px" height="512px" viewBox="0 0 512 512" xml:space="preserve">
<g>
	<path fill="#313131" d="M156.863,279.082v-28.934l-12.409,28.934h-6.89l-12.203-28.934v28.934h-12.825v-50.116h17.166l11.792,28.3
		l12.339-28.3h15.852v50.116H156.863z"/>
	<path fill="#313131" d="M179.549,279.082v-50.116h10.963c0.967,0,1.92,0.965,1.92,2.004v48.112H179.549z"/>
	<path fill="#313131" d="M228.013,250.227h16.289c1.287,0,2.019,1.051,2.019,2.283v25.893c-4.587,1.023-11.746,1.648-17.071,1.648
		c-18.69,0-28.543-8.902-28.543-26.094c0-15.334,9.853-25.957,26.279-25.957c7.233,0,13.573,1.931,17.657,4.688l-5.051,8.621
		c-3.526-1.58-8.285-2.686-11.648-2.686c-9.443,0-13.856,6.267-13.856,15.334c0,9.691,5.109,15.674,14.539,15.674
		c1.731,0,3.874-0.067,5.591-0.332v-8.834h-6.205V250.227z"/>
	<path fill="#313131" d="M284.404,279.082l-5.945-13.796c-1.215-2.81-2.062-4.202-4.639-4.202h-5.213v17.998h-12.596V230.97
		c0-1.039,1.143-2.004,1.961-2.004h17.786c9.66,0,17.943,2.004,17.943,14.485c0,5.586-3.096,11.308-8.891,12.463
		c2.887,0.98,5.795,4.688,7.375,8.704l5.729,14.464H284.404z M274.912,238.623h-6.305v12.567h6.305c3.764,0,6.727-2.009,6.727-6.773
		C281.639,239.586,278.676,238.623,274.912,238.623z"/>
	<path fill="#313131" d="M325.758,280.051c-16.41,0-25.09-11.588-25.09-26.094c0-14.371,8.68-25.957,25.09-25.957
		c15.371,0,24.062,11.586,24.062,25.957C349.82,268.463,341.129,280.051,325.758,280.051z M325.758,238.623
		c-6.76,0-11.57,4.828-11.57,15.334c0,10.661,4.811,15.474,11.57,15.474c5.797,0,10.543-4.812,10.543-15.474
		C336.301,243.451,331.555,238.623,325.758,238.623z"/>
	<path fill="#313131" d="M374.496,280.051c-8.471,0-16.342-3.036-19.852-5.448l5.713-10.131c3.188,1.927,9.385,4.894,15.102,4.894
		c3.236,0,7.324-0.626,7.324-4.218c0-3.374-4.568-4.407-10.559-6.12c-7.232-2.074-15.65-4.953-15.65-14.682
		c0-10.484,9.315-16.346,21.436-16.346c8.004,0,14.205,2.833,17.369,5.861l-6.955,7.922c-3.443-2.055-6.959-3.655-10.9-3.655
		c-4.75,0-7.436,1.802-7.436,4.426c0,2.601,3.445,3.928,7.783,5.23c7.664,2.364,18.129,4.785,18.129,14.823
		C396,272.949,387.734,280.051,374.496,280.051z"/>
</g>
</svg>
