<?xml version="1.0" encoding="utf-8"?>
<!-- Generator: Adobe Illustrator 17.0.2, SVG Export Plug-In . SVG Version: 6.00 Build 0)  -->
<!DOCTYPE svg PUBLIC "-//W3C//DTD SVG 1.1 Tiny//EN" "http://www.w3.org/Graphics/SVG/1.1/DTD/svg11-tiny.dtd">
<svg version="1.1" baseProfile="tiny" id="Layer_1" xmlns="http://www.w3.org/2000/svg" xmlns:xlink="http://www.w3.org/1999/xlink"
	 x="0px" y="0px" width="512px" height="512px" viewBox="0 0 512 512" xml:space="preserve">
<g>
	<path fill="#313131" d="M322.853,188.897c-17.991-17.991-41.91-27.899-67.353-27.899c-52.522,0-95.252,42.73-95.252,95.251
		c0,25.442,9.908,49.362,27.899,67.353c17.991,17.991,41.91,27.899,67.353,27.899s49.362-9.908,67.353-27.899
		c17.991-17.991,27.899-41.91,27.899-67.353C350.751,230.808,340.844,206.888,322.853,188.897z M255.5,348.206
		c-24.562,0-47.654-9.565-65.022-26.934c-17.368-17.368-26.934-40.46-26.934-65.022c0-24.562,9.565-47.654,26.934-65.022
		c17.368-17.368,40.46-26.934,65.022-26.934s47.654,9.565,65.022,26.934c17.368,17.368,26.934,40.46,26.934,65.022
		C347.456,306.955,306.205,348.206,255.5,348.206z"/>
	<path fill="#313131" d="M255.5,168.084c-48.692,0-88.166,39.474-88.166,88.166s39.474,88.166,88.166,88.166
		s88.166-39.474,88.166-88.166S304.192,168.084,255.5,168.084z M243,173h6.595l6.317,16.53l6.316-16.53H269v23h-5v-16.099
		L258.45,196h-5.075L247,179.901V196h-4V173z M184.088,211.074l11.324-13.495c2.344-2.793,5.621-5.024,8.734-2.411
		c0.962,0.807,1.369,1.073,2.536,3.202c0.275,0.755,0.486,2.124-0.032,3.465c2.709-1.68,5.595-1.132,7.462,0.682
		c2.869,2.788,2.447,6.012-0.282,9.264l-11.942,14.231L184.088,211.074z M255.5,312.568c-31.103,0-56.318-25.215-56.318-56.318
		s25.215-56.318,56.318-56.318s56.318,25.215,56.318,56.318S286.603,312.568,255.5,312.568z M307.976,226.486l-4.214-5.246
		l8.395-12.276l-0.05-0.061l-13.753,5.66l-4.255-5.213l14.559-18.727l3.591,4.434l-9.117,11.926l13.932-5.981l3.852,4.757
		l-8.747,12.384l13.561-6.438l3.591,4.434L307.976,226.486z"/>
	<path fill="#313131" d="M202.805,256H255v-52.445C226,203.555,202.805,226,202.805,256z"/>
	<path fill="#313131" d="M255,308.945c30,0,53.195-22.945,53.195-52.945H255V308.945z"/>
	<polygon fill="#313131" points="255.912,189.427 255.879,189.513 255.945,189.513 	"/>
	<path fill="#313131" d="M201.601,200.979c-1.145-0.961-2.926-0.999-3.714-0.06l-6.801,8.106l4.208,3.531l6.725-8.014
		C202.863,203.534,202.86,202.036,201.601,200.979z"/>
	<path fill="#313131" d="M209.851,210.374c0.942-1.122,0.806-2.87-0.568-4.023c-1.214-1.019-3.013-0.738-3.82,0.224l-7.147,8.518
		l4.446,3.731L209.851,210.374z"/>
</g>
</svg>
