<?xml version="1.0" encoding="utf-8"?>
<!-- Generator: Adobe Illustrator 17.0.2, SVG Export Plug-In . SVG Version: 6.00 Build 0)  -->
<!DOCTYPE svg PUBLIC "-//W3C//DTD SVG 1.1 Tiny//EN" "http://www.w3.org/Graphics/SVG/1.1/DTD/svg11-tiny.dtd">
<svg version="1.1" baseProfile="tiny" id="Layer_1" xmlns="http://www.w3.org/2000/svg" xmlns:xlink="http://www.w3.org/1999/xlink"
	 x="0px" y="0px" width="512px" height="512px" viewBox="0 0 512 512" xml:space="preserve">
<g>
	<path fill="#313131" d="M311.507,238.198c-5.056-0.978-9.725-0.175-13.512,3.686c-0.156,0.16-0.368,0.265-0.668,0.476
		c-2.075-3.683-5.353-4.601-9.289-4.508c-3.832,0.091-7.072,1.287-9.696,4.115c-1.915-3.186-5.339-4.288-9.176-2.992
		c0,10.661,0.008,21.248-0.015,31.836c-0.002,0.861,0.375,1.068,1.12,1.063c2.156-0.014,4.313,0.003,6.47-0.002
		c1.885-0.004,1.895-0.01,1.896-1.928c0.005-6.661,0.037-13.323-0.016-19.984c-0.016-1.989,0.773-3.46,2.609-3.987
		c1.512-0.434,3.198-0.615,4.756-0.443c2.099,0.232,3.131,1.425,3.288,3.546c0.201,2.717,0.219,5.45,0.241,8.177
		c0.035,4.409,0.017,8.818,0.003,13.227c-0.002,0.789,0.032,1.417,1.101,1.4c2.443-0.041,4.889,0.019,7.331-0.057
		c0.325-0.01,0.906-0.571,0.908-0.88c0.045-6.852,0.08-13.706-0.011-20.557c-0.032-2.414,0.041-3.01,2.312-3.931
		c1.289-0.522,2.767-0.823,4.154-0.804c2.325,0.033,3.557,1.342,3.835,3.657c0.125,1.044,0.206,2.099,0.209,3.15
		c0.02,5.99,0.012,11.981,0.008,17.971c-0.001,0.746-0.063,1.461,1.044,1.448c2.444-0.03,4.888-0.015,7.332-0.004
		c0.706,0.003,1.023-0.257,1.012-1.019c-0.112-8.19-0.076-16.384-0.342-24.569C318.259,241.639,315.939,239.056,311.507,238.198z"/>
	<path fill="#313131" d="M398.067,265.916c-1.121-0.074-2.589-0.371-3.242-1.135c-3.074-3.596-5.919-7.387-8.891-11.165
		c3.904-4.496,7.685-8.85,11.462-13.199c-3.048-2.748-8.005-3.724-11.251,0.474c-1.374,1.777-2.789,3.367-4.254,5.076
		c-1.683,1.963-3.891,3.964-4.891,6.078c0-0.601,0-1.112,0-1.623c0-4.84-0.197-9.679-0.2-14.519
		c-0.002-3.064-0.065-6.129-0.135-9.192c-0.043-1.903-1.085-3.296-2.873-3.949c-2.117-0.773-4.32-0.558-6.538-0.25
		c0,16.212-0.007,32.263-0.027,48.313c-0.001,0.873,0.396,1.055,1.127,1.049c1.629-0.014,3.454,0,5.083,0
		c3.369,0.001,3.564,0,3.564-3.429c0-4.109,0-8.218,0-12.153c4,4.418,6.639,8.845,10.101,13.227c1.297,1.642,2.962,2.672,5.056,2.81
		c1.844,0.122,3.671,0.082,5.508-0.117c2.007-0.218,1.97-0.334,1.969-2.416c0-0.719-0.076-1.445,0.002-2.155
		C399.769,266.43,399.362,266.001,398.067,265.916z"/>
	<path fill="#313131" d="M188.372,239.028c-2.034-0.431-3.927-0.456-5.053,1.552c-0.465,0.828-0.865,1.713-1.147,2.618
		c-1.985,6.388-3.93,12.789-5.895,19.183c-0.2,0.652-0.445,1.29-0.669,1.934c-0.556-0.574-0.797-1.124-0.967-1.696
		c-1.981-6.639-3.938-13.286-5.93-19.922c-0.968-3.226-2.233-4.043-5.576-3.86c-1.083,0.059-1.57,0.518-1.864,1.569
		c-2.069,7.405-4.2,14.794-6.321,22.184c-0.175,0.61-0.421,1.199-0.774,2.19c-0.335-0.878-0.55-1.342-0.691-1.828
		c-1.295-4.45-2.571-8.905-3.866-13.355c-0.761-2.615-1.437-5.262-2.352-7.822c-1.047-2.928-4.276-3.957-6.845-2.29
		c0.114,0.387,0.222,0.797,0.355,1.198c3.099,9.347,6.187,18.698,9.308,28.037c1.393,4.167,0.404,3.425,4.853,3.549
		c1.058,0.03,1.507-0.357,1.819-1.338c1.695-5.33,3.455-10.639,5.197-15.954c0.815-2.486,1.64-4.968,2.461-7.452
		c0.135-0.005,0.269-0.01,0.404-0.014c0.164,0.371,0.361,0.731,0.487,1.114c2.188,6.675,4.332,13.365,6.561,20.027
		c1.377,4.116,0.299,3.236,4.631,3.387c1.119,0.039,1.59-0.417,1.93-1.429c1.616-4.802,3.305-9.579,4.961-14.368
		c1.813-5.24,3.615-10.484,5.43-15.723C189.036,239.894,189.266,239.217,188.372,239.028z"/>
	<path fill="#313131" d="M361.377,267.393c0.095-1.104-0.322-1.5-1.442-1.576c-2.431-0.163-3.534-1.293-3.779-3.687
		c-0.102-0.998-0.154-2.006-0.155-3.01c-0.012-8.912-0.002-17.824-0.011-26.735c-0.002-1.867,0.02-3.739-0.101-5.601
		c-0.164-2.513-1.636-4.102-4.135-4.351c-1.652-0.164-3.333-0.031-5.161-0.031c-0.031,0.521-0.067,0.847-0.067,1.173
		c-0.003,12.266-0.014,24.532,0.01,36.797c0.003,1.769,0.122,3.542,0.277,5.305c0.338,3.849,2.44,6.219,6.268,6.665
		c2.11,0.245,4.281-0.019,6.424-0.089c1.454-0.048,2.125-0.736,1.883-2.279C361.254,269.134,361.304,268.249,361.377,267.393z"/>
	<path fill="#313131" d="M256.603,254.341c-1.206-0.565-2.481-0.997-3.747-1.419c-2.22-0.74-4.485-1.351-6.679-2.159
		c-1.531-0.564-2.306-1.774-2.255-3.477c0.059-1.954,1.376-3.488,3.643-4.038c3.738-0.908,7.101,0.025,10.195,2.173
		c0.538,0.373,1.059,0.77,1.59,1.158c2.665-3.999,1.68-5.15-1.345-6.505c-4.899-2.195-9.949-2.363-14.86-0.019
		c-3.142,1.5-4.823,4.035-4.759,7.69c0.064,3.649,1.645,6.28,4.907,7.762c1.768,0.804,3.722,1.194,5.577,1.815
		c1.667,0.558,3.39,1.023,4.95,1.806c1.9,0.954,2.353,2.775,2.152,4.783c-0.182,1.812-1.254,2.963-2.844,3.663
		c-2.182,0.96-4.496,1.095-6.725,0.414c-2.257-0.688-4.408-1.722-6.747-2.661c-2.042,2.742-2.007,4.521,0.521,5.649
		c5.659,2.525,11.421,2.806,16.978-0.272c3.311-1.834,4.738-4.935,4.586-8.669C261.595,258.476,259.845,255.861,256.603,254.341z"/>
	<path fill="#313131" d="M132.318,254.703c-1.702-0.841-3.54-1.414-5.337-2.051c-1.978-0.701-4.011-1.255-5.961-2.023
		c-1.42-0.559-2.094-1.8-2.096-3.315c-0.003-1.879,1.462-3.489,3.676-4.055c3.125-0.798,6.081-0.269,8.852,1.312
		c1.026,0.585,1.979,1.297,2.958,1.945c2.286-2.709,1.944-4.962-1.098-6.361c-4.793-2.203-9.73-2.396-14.616-0.346
		c-3.325,1.395-5.295,3.99-5.314,7.667c-0.019,3.771,1.688,6.639,5.238,8.174c1.352,0.584,2.8,0.948,4.209,1.398
		c1.906,0.608,3.884,1.047,5.707,1.844c1.817,0.794,2.668,2.447,2.598,4.436c-0.07,1.997-1.092,3.436-2.927,4.241
		c-2.232,0.979-4.587,1.092-6.861,0.388c-2.21-0.684-4.313-1.712-6.616-2.651c-2.326,3.011-1.866,4.959,1.791,6.256
		c1.65,0.585,3.413,0.971,5.156,1.153c4.04,0.42,7.904-0.134,11.369-2.515C137.98,266.809,138.334,257.675,132.318,254.703z"/>
	<path fill="#313131" d="M227.424,254.217c-1.432-0.644-2.962-1.072-4.458-1.566c-1.859-0.614-3.751-1.135-5.588-1.809
		c-1.402-0.514-2.297-1.593-2.441-3.109c-0.149-1.565,0.547-2.807,1.856-3.641c0.594-0.378,1.274-0.681,1.957-0.847
		c3.857-0.933,7.273,0.136,10.401,2.404c0.414,0.3,0.815,0.618,1.216,0.923c2.338-2.815,2.017-4.97-1.05-6.405
		c-4.785-2.238-9.739-2.404-14.611-0.372c-3.301,1.377-5.265,3.95-5.304,7.674c-0.04,3.835,1.733,6.606,5.219,8.178
		c1.34,0.604,2.796,0.957,4.208,1.396c1.776,0.552,3.622,0.928,5.326,1.645c2.112,0.89,3.182,2.817,2.996,4.785
		c-0.209,2.219-1.456,3.701-3.735,4.408c-2.012,0.625-4.09,0.723-6.064,0.085c-2.204-0.711-4.309-1.731-6.599-2.675
		c-2.33,2.962-1.922,4.944,1.663,6.225c5.183,1.851,10.41,2.06,15.432-0.589c3.776-1.992,5.187-5.315,4.877-9.463
		C232.462,257.958,230.533,255.614,227.424,254.217z"/>
	<path fill="#313131" d="M340.421,265.862c-3.337-0.516-4.092-1.339-4.36-4.708c-0.049-0.619-0.042-1.243-0.043-1.865
		c-0.003-5.217,0.009-10.433-0.008-15.65c-0.008-2.371-1.048-3.955-3.113-4.644c-1.993-0.666-4.029-0.641-6.152-0.152
		c-0.039,0.353-0.078,0.54-0.078,0.727c-0.008,6.748-0.065,13.496,0.01,20.243c0.029,2.566,0.146,5.17,0.618,7.682
		c0.503,2.678,2.407,4.496,5.112,4.741c2.675,0.242,5.406-0.07,8.106-0.247c0.344-0.023,0.885-0.673,0.921-1.07
		c0.119-1.281,0.003-2.582,0.06-3.872C341.531,266.225,341.141,265.974,340.421,265.862z"/>
	<path fill="#313131" d="M201.083,256.898c-0.002-4.551,0.027-9.102-0.012-13.653c-0.026-2.982-1.708-4.534-4.595-4.439
		c-0.85,0.028-1.204,0.329-1.182,1.2c0.041,1.676,0.012,3.353,0.012,5.03c0,7.377-0.011,14.755,0.005,22.132
		c0.007,3.384,1.42,4.998,4.286,5.111c1.096,0.043,1.528-0.259,1.512-1.442C201.049,266.192,201.085,261.545,201.083,256.898z"/>
	<path fill="#313131" d="M330.978,232.917c2.957,0.017,5.25-2.179,5.305-5.081c0.054-2.866-2.247-5.162-5.183-5.174
		c-2.973-0.012-5.253,2.17-5.281,5.055C325.789,230.606,328.065,232.899,330.978,232.917z"/>
	<path fill="#313131" d="M198.207,224.155c-2.209-0.039-3.764,1.432-3.78,3.574c-0.016,2.072,1.501,3.66,3.538,3.701
		c2.178,0.044,3.731-1.453,3.743-3.608C201.721,225.625,200.354,224.193,198.207,224.155z"/>
</g>
</svg>
