<?xml version="1.0" encoding="utf-8"?>
<!-- Generator: Adobe Illustrator 17.0.2, SVG Export Plug-In . SVG Version: 6.00 Build 0)  -->
<!DOCTYPE svg PUBLIC "-//W3C//DTD SVG 1.1 Tiny//EN" "http://www.w3.org/Graphics/SVG/1.1/DTD/svg11-tiny.dtd">
<svg version="1.1" baseProfile="tiny" id="Layer_1" xmlns="http://www.w3.org/2000/svg" xmlns:xlink="http://www.w3.org/1999/xlink"
	 x="0px" y="0px" width="512px" height="512px" viewBox="0 0 512 512" xml:space="preserve">
<g>
	<path fill="#313131" d="M169.225,259.043c0-7.11,2.212-14.09,6.6-20.845c0.541-0.827,1.117-1.655,1.721-2.475
		c-21.154,1.806-42.787,1.063-65.546-4.841v59.402c26.239,4.694,49.929,4.033,72.313,1.017
		c-6.917-6.902-11.735-14.824-13.892-23.168C169.624,265.087,169.225,262.055,169.225,259.043z"/>
	<path fill="#313131" d="M350.212,216.31c4.28,4.922,6.894,10.509,7.818,16.723c1.976,13.522-7.911,27.24-18.455,37.664
		c19.306,2.563,39.756,8.506,62.059,19.588v-59.402C383.72,223.173,366.649,218.622,350.212,216.31z M395.339,257.435h-11.376
		v11.379h-11.375v-11.379h-11.379v-11.379h11.379V234.68h11.376v11.375h11.375V257.435z"/>
	<path fill="#313131" d="M193.6,292.621c17.813,14.832,43.17,23.331,69.672,17.554c12.752-2.776,25.86-10.246,40.123-18.567
		c-15.153-4.245-29.877-6.484-46.206-6.484C233.19,285.123,214.662,287.602,193.6,292.621z"/>
	<path fill="#313131" d="M351.438,232.917c-2.192-14.882-15.582-24.847-34.072-30.156c-18.486-5.305-42.061-5.958-64.622-2.223
		c-20.547,3.406-42.095,11.515-57.442,22.879c-15.343,11.364-24.487,25.983-20.23,42.412c2.459,9.477,8.65,18.157,17.229,25.206
		c20.017-4.887,39.431-9.728,67.433-9.728c15.807,0,34.119,2.343,49.558,5.324c12.23-7.787,23.393-16.939,31.184-26.277
		C348.267,251.012,352.69,241.477,351.438,232.917z M268.774,215.328c3.194,2.304,5.533,8.321,5.533,8.321
		c1.485-2.56,2.598-3.855,4.574-6.067c2.687-3.008,6.318-5.096,6.318-5.096s2.092,2.123,2.726,5.146
		c0.448,2.127,0.201,5.92,0.224,5.9c0,0,5.885-6.736,13.03-7.892c-3.967,4.76-7.517,10.022-9.968,15.648h-26.08
		C267.429,226.309,268.504,220.47,268.774,215.328z M263.493,234.51h26.242l-1.237,3.024l-26.3,0.015L263.493,234.51z
		 M308.008,269.375l-6.863,0.016c0,0,2.591-6.055,5.56-12.064c1.802-3.615,1.972-6.43-0.82-8.255
		c-3.986-2.614-9.013,0.603-12.57,8.228c-1.678,3.619-5.568,12.091-5.568,12.091h-6.674c0,0,2.826-6.055,5.808-12.064
		c1.798-3.615,1.968-6.43-0.82-8.255c-3.979-2.614-9.102,0.603-12.663,8.228c-1.678,3.619-5.691,12.091-5.691,12.091h-6.724
		c0,0,2.95-6.055,5.931-12.064c1.794-3.615,2.111-6.43-0.669-8.255c-3.979-2.614-9.318,0.603-12.88,8.228
		c-1.686,3.619-5.475,12.091-5.475,12.091h-6.732c0,0,2.796-6.055,5.777-12.064c1.79-3.615,2.266-6.43-0.51-8.255
		c-3.986-2.614-9.562,0.603-13.127,8.228c-1.682,3.619-5.475,12.091-5.475,12.091l-19.588-0.016
		c-12.891,0-23.965-11.638-17.956-25.461c8.394-19.333,31.818-17.69,42.3-17.69l-2.154,4.961c-7.316,0-26.026-0.889-32.537,13.514
		c-4.64,10.254,2.742,19.213,14.511,19.213h11.314c0,0,2.587-5.781,4.737-9.721c4.396-8.023,10.366-11.232,16.464-11.232
		c6.596,0,9.284,6.244,9.284,6.244s5.034-5.742,11.955-5.742c6.604,0,7.571,5.591,7.571,5.591s5.32-5.591,12.253-5.591
		c6.596,0,7.776,5.429,7.776,5.429s5.514-5.429,11.275-5.429c4.373,0,12.365,3.275,8.267,12.853
		C310.688,262.361,308.008,269.375,308.008,269.375z M224.73,244.029l-2.529,5.398h-22.488l2.374-5.409L224.73,244.029z
		 M319.906,269.456h-6.859l11.399-25.001h6.786L319.906,269.456z M334.069,238.326h-6.743l2.598-6.132h6.852L334.069,238.326z"/>
</g>
</svg>
