<?xml version="1.0" encoding="utf-8"?>
<!-- Generator: Adobe Illustrator 17.0.2, SVG Export Plug-In . SVG Version: 6.00 Build 0)  -->
<!DOCTYPE svg PUBLIC "-//W3C//DTD SVG 1.1 Tiny//EN" "http://www.w3.org/Graphics/SVG/1.1/DTD/svg11-tiny.dtd">
<svg version="1.1" baseProfile="tiny" id="Layer_1" xmlns="http://www.w3.org/2000/svg" xmlns:xlink="http://www.w3.org/1999/xlink"
	 x="0px" y="0px" width="512px" height="512px" viewBox="0 0 512 512" xml:space="preserve">
<g>
	<path fill="#313131" d="M78,271h113v-38H78V271z M147.037,239h7.287l-9.824,10H157v-10h6v10h11.672l-9.827-10h7.291l12.549,12.5
		L172.136,264h-7.291l9.827-9H163v9h-6v-9h-12.499l9.824,9h-7.287l-12.549-12.5L147.037,239z"/>
	<path fill="#313131" d="M216.971,250.123c-6.607-1.7-7.858-1.959-7.858-3.987c0-2.214,2.138-3.054,3.984-3.054
		c2.769,0,5.02,0.918,5.202,3.918h5.611c0-6-5.056-8.42-10.554-8.42c-4.761,0-9.854,2.616-9.854,8.004
		c0,4.943,3.947,6.474,7.862,7.506c3.874,1.033,7.822,1.522,7.822,4.361c0,2.696-3.101,3.355-5.129,3.355
		c-3.101,0-5.83-1.806-5.83-4.806h-5.611c-0.073,6,5.388,9.312,11.218,9.312c7.161,0,10.962-3.647,10.962-8.484
		C224.796,251.852,218.89,250.601,216.971,250.123z"/>
	<path fill="#313131" d="M245.602,251.302c2.291-1.106,3.582-3.052,3.582-5.635c0-4.907-3.396-6.667-8.416-6.667H228v27h13.137
		c4.761,0,9.302-2.477,9.302-7.829C250.44,254.888,248.813,252.225,245.602,251.302z M234,244h5.59c2.065,0,3.984,0.434,3.984,2.944
		c0,2.214-1.514,3.056-3.542,3.056H234V244z M240.364,261H234v-7h6.473c2.473,0,4.17,0.955,4.17,3.648
		C244.643,260.377,242.651,261,240.364,261z"/>
	<path fill="#313131" d="M271.534,251.302c2.287-1.106,3.579-3.052,3.579-5.635c0-4.907-3.393-6.667-8.413-6.667H254v27h13.069
		c4.761,0,9.299-2.477,9.299-7.829C276.368,254.888,274.745,252.225,271.534,251.302z M260,244h5.522
		c2.065,0,3.984,0.434,3.984,2.944c0,2.214-1.514,3.056-3.542,3.056H260V244z M266.296,261H260v-7h6.405
		c2.473,0,4.17,0.955,4.17,3.648C270.575,260.377,268.583,261,266.296,261z"/>
	<path fill="#313131" d="M301.809,261.142c-5.202,0-7.161-4.311-7.161-8.703c0-4.611,1.959-9.045,7.161-9.045
		c2.878,0,5.388,1.606,5.757,4.606h5.607c-0.701-6-5.571-9.418-11.364-9.418c-8.157,0-12.951,6.121-12.951,13.942
		c0,7.603,4.794,13.472,12.951,13.472c6.457,0,10.996-3.996,11.587-10.996h-5.611C307.343,259,305.351,261.142,301.809,261.142z"/>
	<polygon fill="#313131" points="317,266 323,266 323,255 334,255 334,250 323,250 323,244 335,244 335,239 317,239 	"/>
	<polygon fill="#313131" points="339,266 345,266 345,255 356,255 356,250 345,250 345,244 357,244 357,239 339,239 	"/>
	<polygon fill="#313131" points="370,266 376,266 376,255 387,255 387,250 376,250 376,244 389,244 389,239 370,239 	"/>
	<polygon fill="#313131" points="393,266 399,266 399,255 410,255 410,250 399,250 399,244 411,244 411,239 393,239 	"/>
	<path fill="#313131" d="M427.814,250.123c-6.607-1.7-7.868-1.959-7.868-3.987c0-2.214,2.125-3.054,3.984-3.054
		c2.756,0,5.013,0.918,5.212,3.918h5.577c0-6-5.046-8.42-10.524-8.42c-4.781,0-9.86,2.616-9.86,8.004
		c0,4.943,3.951,6.474,7.868,7.506c3.851,1.033,7.802,1.522,7.802,4.361c0,2.696-3.088,3.355-5.113,3.355
		c-3.121,0-5.843-1.806-5.843-4.806h-5.611c-0.066,6,5.378,9.312,11.221,9.312c7.171,0,10.956-3.647,10.956-8.484
		C435.615,251.852,429.706,250.601,427.814,250.123z"/>
</g>
</svg>
