<?xml version="1.0" encoding="utf-8"?>
<!-- Generator: Adobe Illustrator 17.0.2, SVG Export Plug-In . SVG Version: 6.00 Build 0)  -->
<!DOCTYPE svg PUBLIC "-//W3C//DTD SVG 1.1 Tiny//EN" "http://www.w3.org/Graphics/SVG/1.1/DTD/svg11-tiny.dtd">
<svg version="1.1" baseProfile="tiny" id="Layer_1" xmlns="http://www.w3.org/2000/svg" xmlns:xlink="http://www.w3.org/1999/xlink"
	 x="0px" y="0px" width="512px" height="512px" viewBox="0 0 512 512" xml:space="preserve">
<g>
	<path fill="#313131" d="M256.325,158.5c20.557-0.145,39.921,2.641,64.759,9.301l0.64-2.411
		c-25.056-6.707-44.622-9.519-65.423-9.385c-21.562,0.146-41.722,3.044-65.4,9.373l0.641,2.411
		C215.001,161.507,234.968,158.646,256.325,158.5z M268.216,263.734c4.896-0.755,9.441-1.79,13.67-3.068
		c-2.888-6.73-6.557-13.437-10.949-19.986c-5.657,7.583-9.978,15.543-12.897,23.686C264.169,264.33,268.176,263.734,268.216,263.734
		z M307.195,246.535c-5.487-9.312-11.409-17.918-17.634-25.648c-6.503,5.6-12.224,11.552-17.041,17.699
		c4.737,6.975,8.678,14.145,11.735,21.338C293.527,256.832,301.129,252.402,307.195,246.535z M256.313,222.262
		c-4.883,5.283-9.295,10.736-13.138,16.251c5.651,7.474,10.068,15.325,13.138,23.372c3.07-8.047,7.481-15.898,13.136-23.372
		C265.607,232.999,261.195,227.557,256.313,222.262z M240.093,238.586c-4.799-6.147-10.528-12.099-17.03-17.699
		c-6.237,7.73-12.159,16.336-17.646,25.636c6.08,5.88,13.67,10.309,22.94,13.401C231.415,252.731,235.355,245.561,240.093,238.586z
		 M321.35,223.491c-3.457-6.366-7.433-12.148-11.845-17.212c-6.436,4.017-12.487,8.387-18.046,13.013
		c6.188,7.681,12.086,16.227,17.551,25.43C314.399,238.964,318.472,231.915,321.35,223.491z M230.738,260.666
		c4.23,1.278,8.763,2.302,13.664,3.068c0.054,0,4.043,0.596,10.178,0.632c-2.92-8.143-7.247-16.103-12.897-23.699
		C237.289,247.229,233.608,253.936,230.738,260.666z M326.703,196.881c-2.755,1.278-8.255,3.957-15.071,8.071
		c3.952,4.577,7.561,9.702,10.769,15.313C324.322,213.717,325.701,206.121,326.703,196.881z M191.275,223.491
		c2.865,8.399,6.938,15.46,12.341,21.23c5.469-9.215,11.349-17.748,17.549-25.43c-5.547-4.626-11.615-8.996-18.045-13.013
		C198.709,211.343,194.72,217.113,191.275,223.491z M200.993,204.952c-6.817-4.126-12.317-6.805-15.084-8.083
		c1.003,9.24,2.393,16.835,4.315,23.384C193.427,214.654,197.041,209.517,200.993,204.952z M202.673,203.066
		c7.566-8.242,14.31-12.307,16.897-13.695l0.616-0.328l0.592,0.353c0.072,0.049,7.276,4.321,16.939,12.088
		c9.337-8.619,16.117-12.575,18.021-13.597l0.574-0.305l0.592,0.305c1.885,1.034,8.677,4.991,18.002,13.597
		c9.651-7.766,16.865-12.039,16.94-12.088l0.59-0.341l0.617,0.317c2.6,1.388,9.338,5.453,16.909,13.707
		c2.746-1.68,5.307-3.128,7.579-4.358l6.286-22.385c-19.29-5.417-41.88-9.885-67.515-9.873c-25.624,0.013-48.225,4.456-67.515,9.86
		l6.418,22.459C197.464,199.998,199.954,201.422,202.673,203.066z M235.911,203.199c-7.873-6.306-13.972-10.188-15.785-11.296
		c-2.768,1.546-8.642,5.307-15.325,12.501c6.389,4.005,12.413,8.363,17.948,12.964C227.015,212.219,231.427,207.472,235.911,203.199
		z M287.991,218.976c-4.292-5.162-8.715-9.933-13.186-14.194c-6.02,4.942-11.664,10.189-16.823,15.63
		c4.833,5.221,9.209,10.615,13.057,16.056C275.856,230.394,281.548,224.513,287.991,218.976z M289.888,217.381
		c5.525-4.613,11.549-8.971,17.924-12.976c-6.659-7.182-12.557-10.956-15.312-12.49c-1.813,1.096-7.904,4.991-15.773,11.284
		C281.199,207.472,285.609,212.231,289.888,217.381z M272.98,203.077c-8.244-7.571-14.323-11.333-16.667-12.672
		c-2.344,1.326-8.406,5.088-16.662,12.66c5.942,4.905,11.526,10.104,16.662,15.508C261.437,213.169,267.033,207.971,272.98,203.077z
		 M254.645,220.412c-5.161-5.441-10.811-10.701-16.813-15.63c-4.484,4.26-8.908,9.02-13.186,14.182
		c6.43,5.55,12.111,11.431,16.945,17.505C245.435,231.027,249.811,225.633,254.645,220.412z M313.651,292.864
		c7.891-6.062,27.967-31.782,28.813-32.879l1.534-1.959l-2.478,0.183c-6.852,0.548-22.395,2.458-29.02,3.287l-11.348,19.903
		l-2.152-1.242l10.429-18.27c-0.012,0-0.012,0-0.018,0c-6.954,0.924-10.405,1.751-16.599,6.389l-5.476,4.37l-7.427,6.038
		c-8.055,6.391-16.426,13.439-16.504,13.512l-1.885,1.595l2.429,0.341c1.16,0.159,28.573,3.956,40.067,2.958
		C306.905,296.832,309.638,296.016,313.651,292.864z M292.33,292.779l-1.204-2.191l33.922-18.844l1.197,2.191L292.33,292.779z
		 M198.938,292.864c4.001,3.141,6.744,3.969,9.633,4.212c11.47,0.999,38.896-2.788,40.06-2.946l2.435-0.341l-1.885-1.595
		c-0.097-0.073-8.455-7.121-16.517-13.512l-7.439-6.038l-5.451-4.37c-6.2-4.638-9.645-5.478-16.595-6.403
		c-0.242-0.024-23.331-2.969-32.119-3.663L168.584,258l1.528,1.972C170.958,261.068,191.034,286.802,198.938,292.864z
		 M206.662,265.791l13.09,15.216l-1.873,1.631l-13.09-15.216L206.662,265.791z M189.252,272.073l42.271,18.661l-1.003,2.277
		l-42.254-18.661L189.252,272.073z M183.994,349.449l-10.924-24.177h-4.485v27.896h3.283l-0.292-24.175l10.841,24.175h4.568v-27.896
		h-3.324L183.994,349.449z M199.734,325.272l-9.263,27.896h3.406l2.368-7.318h10.424l2.284,7.318h3.656l-9.095-27.896H199.734z
		 M197.116,342.966l4.405-14.098l4.275,14.098H197.116z M221.764,348.864l-6.437-23.592h-3.792l8.277,27.896h3.656l8.555-27.896
		h-3.491L221.764,348.864z M244.558,338.196l-6.397-12.923h-3.82l8.305,16.187v11.709h3.532v-11.709l8.388-16.187h-3.654
		L244.558,338.196z M267.886,338.573c1.371-0.5,1.953-0.792,2.574-1.339c1.373-1.171,2.077-2.844,2.077-4.893
		c0-4.39-2.865-7.069-7.683-7.069h-7.019v27.896h6.647c5.398,0,8.637-2.924,8.637-7.776
		C273.12,341.752,271.418,339.534,267.886,338.573z M261.324,328.159h2.659c3.239,0,5.066,1.631,5.066,4.475
		c0,3.094-1.91,4.686-5.649,4.686h-2.076V328.159z M264.316,350.286h-2.992v-10.084h3.364c2.99,0,4.903,1.97,4.903,5.022
		C269.591,348.322,267.555,350.286,264.316,350.286z M288.528,324.896c-6.812,0-10.631,5.186-10.631,14.346
		c0,9.08,3.82,14.224,10.631,14.224c6.645,0,10.426-5.064,10.426-14.097C298.953,330.123,295.173,324.896,288.528,324.896z
		 M288.448,350.537c-4.448,0-6.732-3.722-6.856-11.046v-0.458c0-7.445,2.284-11.17,6.856-11.17c4.607,0,6.85,3.767,6.85,11.379
		C295.298,346.857,293.099,350.537,288.448,350.537z M314.173,324.896c-6.81,0-10.631,5.186-10.631,14.346
		c0,9.08,3.822,14.224,10.631,14.224c6.645,0,10.426-5.064,10.426-14.097C324.599,330.123,320.818,324.896,314.173,324.896z
		 M314.091,350.537c-4.443,0-6.727-3.722-6.85-11.046v-0.458c0-7.445,2.283-11.17,6.85-11.17c4.61,0,6.851,3.767,6.851,11.379
		C320.942,346.857,318.744,350.537,314.091,350.537z M327.594,325.272v3.052h6.481v24.845h3.529v-24.845H344v-3.052H327.594z"/>
</g>
</svg>
