<?xml version="1.0" encoding="utf-8"?>
<!-- Generator: Adobe Illustrator 16.0.0, SVG Export Plug-In . SVG Version: 6.00 Build 0)  -->
<!DOCTYPE svg PUBLIC "-//W3C//DTD SVG 1.1//EN" "http://www.w3.org/Graphics/SVG/1.1/DTD/svg11.dtd">
<svg version="1.1" id="Layer_1" xmlns="http://www.w3.org/2000/svg" xmlns:xlink="http://www.w3.org/1999/xlink" x="0px" y="0px"
	 width="174.072px" height="174.069px" viewBox="168.963 168.965 174.072 174.069"
	 enable-background="new 168.963 168.965 174.072 174.069" xml:space="preserve">
<path fill="#FFFFFF" d="M341.258,238.477c-1.148-5.637-2.857-11.141-5.074-16.355c-2.179-5.188-4.881-10.168-8.023-14.793
	c-3.041-4.525-6.613-8.858-10.619-12.886c-3.91-3.899-8.24-7.467-12.872-10.607c-4.644-3.143-9.619-5.848-14.788-8.041
	c-5.24-2.217-10.744-3.924-16.354-5.071c-11.489-2.347-23.611-2.343-35.054,0c-5.625,1.149-11.129,2.855-16.361,5.071
	c-5.178,2.196-10.155,4.902-14.793,8.041c-4.625,3.135-8.951,6.704-12.865,10.611c-3.987,3.998-7.561,8.332-10.623,12.878
	c-3.144,4.652-5.845,9.629-8.024,14.791c-2.211,5.212-3.919,10.716-5.081,16.36c-1.17,5.727-1.763,11.622-1.763,17.522
	c0,5.873,0.592,11.764,1.759,17.516c1.154,5.61,2.865,11.115,5.085,16.36c2.19,5.171,4.891,10.146,8.024,14.782
	c3.089,4.572,6.663,8.906,10.627,12.881c3.925,3.919,8.251,7.494,12.866,10.626c4.621,3.112,9.596,5.812,14.792,8.019
	c5.238,2.209,10.74,3.914,16.35,5.065c5.723,1.187,11.622,1.787,17.533,1.787c5.88,0,11.778-0.601,17.528-1.786
	c5.627-1.156,11.127-2.861,16.355-5.068c5.188-2.207,10.159-4.904,14.789-8.022c4.6-3.13,8.928-6.701,12.872-10.624
	c3.984-4.001,7.555-8.334,10.608-12.873c3.144-4.626,5.846-9.604,8.027-14.786c2.218-5.235,3.927-10.741,5.077-16.36
	c1.179-5.74,1.778-11.634,1.778-17.516C343.036,250.127,342.438,244.231,341.258,238.477z M266.977,225.205
	c-9.562-17.309-19.708-31.806-24.483-38.363c4.454-0.864,8.984-1.301,13.507-1.301c16.516,0,32.445,5.784,45.079,16.327
	C297.918,205.861,287.684,217.064,266.977,225.205z M261.002,254.362c-0.21,0.066-0.419,0.134-0.627,0.203
	c-33.663,10.888-52.997,37.544-58.608,46.4c-10.486-12.613-16.229-28.472-16.229-44.967c0-0.067,0-0.134,0.001-0.202
	c0.193,0.001,0.398,0.001,0.615,0.001c8.654-0.001,38.984-0.729,70.763-9.957C258.395,248.784,259.762,251.637,261.002,254.362z
	 M267.6,270.342c8.909,23.631,13.006,43.527,14.379,51.157c-8.261,3.289-16.992,4.957-25.979,4.963
	c-15.21,0-29.671-4.792-41.932-13.873C217.408,306.54,232.23,283.15,267.6,270.342z M278.348,248.321
	c-1.166-2.741-2.451-5.58-3.908-8.63c21.791-9.341,33.491-21.496,37.595-26.409c8.642,11.342,13.667,25.164,14.332,39.422
	c-5.397-0.992-17.556-2.888-31.64-2.888c-5.362,0-10.535,0.276-15.404,0.822C279.003,249.872,278.68,249.102,278.348,248.321z
	 M187.621,238.955c4.932-19.803,18.474-36.742,36.771-45.941c3.288,4.534,14.028,19.662,24.438,37.833
	C220.898,237.935,196.463,238.872,187.621,238.955z M325.256,268.966c-3.245,17.374-13.044,33.027-27.248,43.599
	c-1.445-7.597-5.269-25.401-12.763-46.526c3.976-0.521,8.093-0.782,12.272-0.782C310.617,265.255,321.156,267.811,325.256,268.966z"
	/>
</svg>
