<?xml version="1.0" encoding="utf-8"?>
<!-- Generator: Adobe Illustrator 16.0.0, SVG Export Plug-In . SVG Version: 6.00 Build 0)  -->
<!DOCTYPE svg PUBLIC "-//W3C//DTD SVG 1.1//EN" "http://www.w3.org/Graphics/SVG/1.1/DTD/svg11.dtd">
<svg version="1.1" id="Layer_1" xmlns="http://www.w3.org/2000/svg" xmlns:xlink="http://www.w3.org/1999/xlink" x="0px" y="0px"
	 width="159.861px" height="159.86px" viewBox="176.403 175.404 159.861 159.86"
	 enable-background="new 176.403 175.404 159.861 159.86" xml:space="preserve">
<path fill="#FFFFFF" d="M317.822,243.03h-13.918c1.015,3.936,1.613,8.049,1.613,12.301c0,27.169-22.02,49.188-49.185,49.188
	c-27.164,0-49.185-22.02-49.185-49.188c0-4.252,0.602-8.365,1.616-12.301h-13.918v67.638c0,3.391,2.754,6.143,6.155,6.143h110.668
	c3.401,0,6.155-2.752,6.155-6.143V243.03H317.822z M317.822,199.993c0-3.394-2.754-6.148-6.155-6.148h-18.442
	c-3.396,0-6.147,2.754-6.147,6.148v18.449c0,3.394,2.751,6.148,6.147,6.148h18.442c3.401,0,6.155-2.754,6.155-6.148V199.993z
	 M256.333,224.589c-16.98,0-30.743,13.761-30.743,30.741c0,16.977,13.763,30.745,30.743,30.745
	c16.979,0,30.745-13.769,30.745-30.745C287.078,238.351,273.312,224.589,256.333,224.589 M317.822,335.264H194.845
	c-10.184,0-18.442-8.261-18.442-18.451V193.846c0-10.185,8.258-18.442,18.442-18.442h122.977c10.185,0,18.441,8.256,18.441,18.442
	v122.966C336.263,327.002,328.007,335.264,317.822,335.264"/>
</svg>
