<?xml version="1.0" encoding="utf-8"?>
<!-- Generator: Adobe Illustrator 16.0.0, SVG Export Plug-In . SVG Version: 6.00 Build 0)  -->
<!DOCTYPE svg PUBLIC "-//W3C//DTD SVG 1.1//EN" "http://www.w3.org/Graphics/SVG/1.1/DTD/svg11.dtd">
<svg version="1.1" id="Layer_1" xmlns="http://www.w3.org/2000/svg" xmlns:xlink="http://www.w3.org/1999/xlink" x="0px" y="0px"
	 width="106.422px" height="169.478px" viewBox="202.789 171.261 106.422 169.478"
	 enable-background="new 202.789 171.261 106.422 169.478" xml:space="preserve">
<path fill="#FFFFFF" d="M263.376,171.261v39.189h39.183v30.261h-39.183v43.452c0,9.831-0.121,15.502,0.916,18.288
	c1.036,2.771,3.633,5.65,6.456,7.31c3.76,2.253,8.029,3.375,12.857,3.375c8.582,0,17.117-2.786,25.605-8.36v26.721
	c-7.23,3.408-13.794,5.812-19.665,7.176c-5.878,1.364-12.221,2.066-19.046,2.066c-7.748,0-12.32-0.981-18.267-2.928
	c-5.957-1.97-11.036-4.769-15.234-8.367c-4.218-3.625-7.121-7.479-8.746-11.553c-1.629-4.084-2.441-10-2.441-17.746v-59.434h-23.023
	v-24.004c6.656-2.159,14.373-5.258,19.111-9.294c4.759-4.049,8.567-8.891,11.432-14.555c2.886-5.651,4.862-12.858,5.947-21.594
	h24.097V171.261L263.376,171.261z"/>
</svg>
