<?xml version="1.0" encoding="utf-8"?>
<!-- Generator: Adobe Illustrator 16.0.0, SVG Export Plug-In . SVG Version: 6.00 Build 0)  -->
<!DOCTYPE svg PUBLIC "-//W3C//DTD SVG 1.1//EN" "http://www.w3.org/Graphics/SVG/1.1/DTD/svg11.dtd">
<svg version="1.1" id="Layer_1" xmlns="http://www.w3.org/2000/svg" xmlns:xlink="http://www.w3.org/1999/xlink" x="0px" y="0px"
	 width="182.54px" height="148.341px" viewBox="164.729 181.829 182.54 148.341"
	 enable-background="new 164.729 181.829 182.54 148.341" xml:space="preserve">
<path fill="#FFFFFF" d="M347.269,199.389c-6.71,2.983-13.932,4.995-21.51,5.895c7.737-4.632,13.669-11.968,16.467-20.72
	c-7.236,4.295-15.247,7.411-23.78,9.093c-6.829-7.277-16.563-11.828-27.336-11.828c-20.68,0-37.446,16.767-37.446,37.45
	c0,2.931,0.33,5.788,0.971,8.533c-31.125-1.564-58.723-16.47-77.194-39.129c-3.224,5.528-5.069,11.961-5.069,18.831
	c0,12.991,6.61,24.456,16.659,31.17c-6.136-0.196-11.913-1.882-16.963-4.687c-0.004,0.156-0.004,0.315-0.004,0.474
	c0,18.142,12.91,33.274,30.043,36.72c-3.142,0.852-6.451,1.312-9.867,1.312c-2.416,0-4.761-0.233-7.048-0.674
	c4.769,14.877,18.597,25.708,34.982,26.008c-12.817,10.045-28.961,16.033-46.51,16.033c-3.02,0-6.003-0.179-8.934-0.526
	c16.578,10.631,36.261,16.826,57.407,16.826c68.887,0,106.551-57.062,106.551-106.552c0-1.623-0.032-3.242-0.104-4.85
	C335.901,213.499,342.252,206.9,347.269,199.389z"/>
</svg>
